<?xml version="1.0" encoding="UTF-8" standalone="no"?>
<!-- Created with Inkscape (http://www.inkscape.org/) -->

<svg
   width="200mm"
   height="44mm"
   viewBox="0 0 200 44"
   version="1.1"
   id="svg485"
   inkscape:version="1.1.1 (3bf5ae0d25, 2021-09-20)"
   sodipodi:docname="drawing-01121.svg"
   xmlns:inkscape="http://www.inkscape.org/namespaces/inkscape"
   xmlns:sodipodi="http://sodipodi.sourceforge.net/DTD/sodipodi-0.dtd"
   xmlns="http://www.w3.org/2000/svg"
   xmlns:svg="http://www.w3.org/2000/svg">
  <sodipodi:namedview
     id="namedview487"
     pagecolor="#ffffff"
     bordercolor="#666666"
     borderopacity="1.0"
     inkscape:pageshadow="2"
     inkscape:pageopacity="0.0"
     inkscape:pagecheckerboard="0"
     inkscape:document-units="mm"
     showgrid="false"
     width="217mm"
     units="mm"
     showborder="true"
     inkscape:snap-object-midpoints="false"
     inkscape:snap-others="false"
     inkscape:zoom="0.49887767"
     inkscape:cx="207.46569"
     inkscape:cy="219.49269"
     inkscape:window-width="1366"
     inkscape:window-height="745"
     inkscape:window-x="-8"
     inkscape:window-y="-8"
     inkscape:window-maximized="1"
     inkscape:current-layer="layer1" />
  <defs
     id="defs482">
    <linearGradient
       id="linearGradient16230"
       inkscape:swatch="solid">
      <stop
         style="stop-color:#008000;stop-opacity:1;"
         offset="0"
         id="stop16228" />
    </linearGradient>
    <linearGradient
       id="linearGradient10514"
       inkscape:swatch="solid">
      <stop
         style="stop-color:#008000;stop-opacity:1;"
         offset="0"
         id="stop10512" />
    </linearGradient>
  </defs>
  <g
     inkscape:label="Layer 1"
     inkscape:groupmode="layer"
     id="layer1">
    <path
       id="path80505"
       style="opacity:0.7;fill:#ffffff;stroke:#ffffff;stroke-width:0.264583"
       d="M 46.13155,22.00625 A 22.540176,22.009821 0 0 1 23.591373,44.016071 22.540176,22.009821 0 0 1 1.0511971,22.00625 22.540176,22.009821 0 0 1 23.591373,-0.00357056 22.540176,22.009821 0 0 1 46.13155,22.00625 Z" />
    <g
       transform="matrix(1.2793343,0,0,1.4858142,-3.1304047,-21.353075)"
       id="text1569"
       style="font-size:18.423px;line-height:1.25;font-family:'Berlin Sans FB Demi';-inkscape-font-specification:'Berlin Sans FB Demi';white-space:pre;inline-size:97.1891;stroke-width:0.191906" />
    <g
       id="text22529"
       style="font-size:22.5778px;line-height:1.25;font-family:'Cooper Black';-inkscape-font-specification:'Cooper Black, ';stroke-width:0.264583" />
    <g
       id="text30339"
       style="font-size:19.7556px;line-height:1.25;font-family:'Cooper Black';-inkscape-font-specification:'Cooper Black, ';stroke-width:0.264583" />
    <g
       id="text51749"
       style="font-size:22.5778px;line-height:1.25;font-family:'Berlin Sans FB Demi';-inkscape-font-specification:'Berlin Sans FB Demi';stroke-width:0.264583" />
    <path
       id="path76388"
       style="fill:#ffffff;fill-rule:evenodd;stroke:#ffffff;stroke-width:0.264583"
       d="m 22.188557,22.025997 c 0.630155,1.07845 -1.238076,1.329275 -1.909891,0.982958 -1.820572,-0.938497 -1.406264,-3.364244 -0.184826,-4.567871 2.184871,-2.153004 5.904703,-1.457051 7.824388,0.636038 2.817215,3.071691 1.712934,7.751903 -1.54024,10.118699 C 22.04202,32.350388 15.750237,30.960211 12.639106,26.94079 8.7240636,21.882758 10.58852,14.738257 15.904411,11.27126 22.342664,7.0722643 31.28419,9.184701 35.557789,15.145288 c 5.03629,7.024345 2.397248,16.66778 -4.990368,21.220363 C 22.038123,41.621778 10.426151,38.779595 4.9995465,30.872622 -1.1665082,21.888216 2.2519763,9.7337606 11.714979,4.1014396 22.331042,-2.2171741 36.622051,1.3577187 43.197352,11.213454 50.49718,22.155193 46.297066,36.826323 34.756849,43.535463" />
    <g
       aria-label="NIGERIA"
       transform="scale(1.0655855,0.93845117)"
       id="text4135"
       style="font-size:33.9838px;line-height:1.35;stroke-width:0.264582;fill:#ffffff">
      <path
         d="M 46.761199,25.8804 V 1.5541061 h 4.778972 L 61.496362,17.799291 V 1.5541061 h 4.563254 V 25.8804 H 61.131302 L 51.324453,10.016869 V 25.8804 Z"
         style="font-weight:bold;font-family:Arial;-inkscape-font-specification:'Arial Bold';fill:#ffffff"
         id="path857" />
      <path
         d="M 71.104087,25.8804 V 1.5541061 h 4.911721 V 25.8804 Z"
         style="font-weight:bold;font-family:Arial;-inkscape-font-specification:'Arial Bold';fill:#ffffff"
         id="path859" />
      <path
         d="m 92.012088,16.936421 v -4.098632 h 10.586752 v 9.690693 q -1.54321,1.493429 -4.480288,2.638391 -2.920483,1.128368 -5.923934,1.128368 -3.81654,0 -6.654054,-1.592991 -2.837515,-1.609584 -4.264569,-4.579847 -1.427054,-2.986858 -1.427054,-6.488118 0,-3.7999466 1.592991,-6.7536167 1.59299,-2.95367 4.662816,-4.5300669 2.339705,-1.2113366 5.824371,-1.2113366 4.530067,0 7.068896,1.90827 2.555425,1.8916763 3.285545,5.2435939 L 97.405025,9.2037796 Q 96.890621,7.4116652 95.463567,6.3828588 94.053107,5.3374587 91.929119,5.3374587 q -3.219168,0 -5.127438,2.0410192 -1.891676,2.0410192 -1.891676,6.0566831 0,4.330943 1.924863,6.504711 1.924864,2.157175 5.044471,2.157175 1.543209,0 3.086419,-0.597371 1.559803,-0.613966 2.671578,-1.476835 v -3.08642 z"
         style="font-weight:bold;font-family:Arial;-inkscape-font-specification:'Arial Bold';fill:#ffffff"
         id="path861" />
      <path
         d="M 107.12891,25.8804 V 1.5541061 h 18.0373 v 4.1152257 h -13.12558 v 5.3929372 h 12.21293 v 4.098632 h -12.21293 v 6.620867 h 13.5902 V 25.8804 Z"
         style="font-weight:bold;font-family:Arial;-inkscape-font-specification:'Arial Bold';fill:#ffffff"
         id="path863" />
      <path
         d="M 129.81242,25.8804 V 1.5541061 h 10.33785 q 3.89951,0 5.65843,0.6637461 1.77552,0.6471524 2.83752,2.3231112 1.06199,1.6759589 1.06199,3.8331336 0,2.737953 -1.60958,4.530067 -1.60959,1.775521 -4.81216,2.240143 1.59299,0.929244 2.6218,2.041019 1.0454,1.111775 2.80432,3.949289 l 2.97027,4.745785 h -5.87416 l -3.55104,-5.293375 q -1.89167,-2.837515 -2.58861,-3.567635 -0.69693,-0.746715 -1.47683,-1.012213 -0.7799,-0.282092 -2.47246,-0.282092 h -0.99562 V 25.8804 Z m 4.91172,-14.03823 h 3.63401 q 3.53445,0 4.41392,-0.298685 0.87946,-0.298686 1.37727,-1.028807 0.49781,-0.7301206 0.49781,-1.8253016 0,-1.2279302 -0.66375,-1.9746446 -0.64715,-0.763308 -1.84189,-0.9624318 -0.59737,-0.082968 -3.58423,-0.082968 h -3.83314 z"
         style="font-weight:bold;font-family:Arial;-inkscape-font-specification:'Arial Bold';fill:#ffffff"
         id="path865" />
      <path
         d="M 154.1885,25.8804 V 1.5541061 h 4.91172 V 25.8804 Z"
         style="font-weight:bold;font-family:Arial;-inkscape-font-specification:'Arial Bold';fill:#ffffff"
         id="path867" />
      <path
         d="m 185.71644,25.8804 h -5.34316 l -2.12398,-5.525686 h -9.72388 l -2.00783,5.525686 h -5.21041 l 9.47497,-24.3262939 h 5.19382 z m -9.04354,-9.624318 -3.35192,-9.026947 -3.28554,9.026947 z"
         style="font-weight:bold;font-family:Arial;-inkscape-font-specification:'Arial Bold';fill:#ffffff"
         id="path869" />
    </g>
    <path
       id="rect24905"
       style="opacity:0.7;fill:#ffffff;fill-opacity:1;stroke:#ffffff;stroke-width:0.264583;stroke-opacity:1"
       d="M 49.842863,26.797024 H 197.8275 V 42.433331 H 49.842863 Z" />
    <g
       aria-label="P O S T A L    C O D E"
       id="text4118"
       style="font-size:14.1111px;line-height:1.25;font-family:Arial;-inkscape-font-specification:Arial;stroke-width:0.264583;fill:#008000">
      <path
         d="M 53.005211,39.776787 V 29.675775 h 3.272838 q 1.86035,0 2.425345,0.151584 0.868163,0.227376 1.453829,0.992186 0.585666,0.757921 0.585666,1.963703 0,0.930175 -0.337619,1.564073 -0.337619,0.633897 -0.861273,0.999076 -0.516764,0.35829 -1.054199,0.475423 -0.730359,0.144694 -2.115287,0.144694 h -1.329806 v 3.810273 z m 2.039494,-8.392246 v 2.866317 h 1.116211 q 1.205782,0 1.612303,-0.158474 0.406521,-0.158475 0.633897,-0.496094 0.234266,-0.337619 0.234266,-0.785481 0,-0.551215 -0.323838,-0.909504 -0.323839,-0.35829 -0.819932,-0.447862 -0.36518,-0.0689 -1.46761,-0.0689 z"
         style="font-weight:bold;-inkscape-font-specification:'Arial Bold';fill:#008000"
         id="path19759" />
      <path
         d="m 65.669371,34.788292 q 0,-1.543401 0.461643,-2.590709 0.344509,-0.771701 0.937065,-1.384928 0.599446,-0.613226 1.309135,-0.909504 0.943956,-0.399631 2.177299,-0.399631 2.23242,0 3.569116,1.384927 1.343586,1.384928 1.343586,3.851614 0,2.446016 -1.329806,3.830943 -1.329805,1.378037 -3.555335,1.378037 -2.253091,0 -3.582897,-1.371146 -1.329806,-1.378038 -1.329806,-3.789603 z m 2.101507,-0.0689 q 0,1.715656 0.792371,2.60449 0.792372,0.881943 2.011934,0.881943 1.219563,0 1.998154,-0.875053 0.785481,-0.881944 0.785481,-2.638941 0,-1.736327 -0.76481,-2.59071 -0.757921,-0.854383 -2.018825,-0.854383 -1.260904,0 -2.032604,0.868163 -0.771701,0.861274 -0.771701,2.604491 z"
         style="font-weight:bold;-inkscape-font-specification:'Arial Bold';fill:#008000"
         id="path19761" />
      <path
         d="m 80.4626,36.490168 1.984374,-0.192925 q 0.179144,0.999077 0.723469,1.46761 0.551215,0.468532 1.48139,0.468532 0.985297,0 1.48139,-0.413411 0.502983,-0.420301 0.502983,-0.978406 0,-0.35829 -0.213595,-0.606337 -0.206706,-0.254936 -0.73036,-0.440971 -0.35829,-0.124024 -1.632974,-0.440972 -1.639864,-0.406521 -2.301322,-0.999077 -0.930175,-0.833713 -0.930175,-2.032605 0,-0.771701 0.434082,-1.440049 0.440972,-0.675238 1.260904,-1.026638 0.826822,-0.351399 1.991263,-0.351399 1.901691,0 2.859427,0.833712 0.964626,0.833713 1.012858,2.22553 l -2.039495,0.08957 q -0.130914,-0.778591 -0.564996,-1.11621 -0.427191,-0.34451 -1.288464,-0.34451 -0.888834,0 -1.391818,0.36518 -0.323839,0.234267 -0.323839,0.627007 0,0.35829 0.303169,0.613227 0.38585,0.323838 1.87413,0.675238 1.48828,0.351399 2.197969,0.73036 0.71658,0.37207 1.11621,1.026637 0.406521,0.647678 0.406521,1.605414 0,0.868163 -0.482313,1.626083 -0.482313,0.757921 -1.364256,1.129991 -0.881944,0.36518 -2.19797,0.36518 -1.915471,0 -2.942109,-0.881944 -1.026638,-0.888834 -1.226453,-2.58382 z"
         style="font-weight:bold;-inkscape-font-specification:'Arial Bold';fill:#008000"
         id="path19763" />
      <path
         d="m 96.585635,39.776787 v -8.392246 h -2.99723 v -1.708766 h 8.027065 v 1.708766 h -2.99034 v 8.392246 z"
         style="font-weight:bold;-inkscape-font-specification:'Arial Bold';fill:#008000"
         id="path19765" />
      <path
         d="m 115.43718,39.776787 h -2.21864 l -0.88194,-2.294432 h -4.03765 l -0.83371,2.294432 h -2.16352 l 3.9343,-10.101012 h 2.15662 z m -3.75515,-3.996308 -1.39182,-3.748261 -1.36425,3.748261 z"
         style="font-weight:bold;-inkscape-font-specification:'Arial Bold';fill:#008000"
         id="path19767" />
      <path
         d="m 119.97092,39.776787 v -10.01833 h 2.0395 v 8.316454 h 5.07117 v 1.701876 z"
         style="font-weight:bold;-inkscape-font-specification:'Arial Bold';fill:#008000"
         id="path19769" />
      <path
         d="m 150.42554,36.062977 1.97748,0.627007 q -0.45475,1.653644 -1.51584,2.459796 -1.05419,0.799261 -2.68028,0.799261 -2.01193,0 -3.30729,-1.371146 -1.29535,-1.378038 -1.29535,-3.762042 0,-2.521808 1.30224,-3.913625 1.30225,-1.398708 3.42442,-1.398708 1.85346,0 3.01102,1.09554 0.68901,0.647677 1.03352,1.86035 l -2.01882,0.482313 q -0.17915,-0.785482 -0.75103,-1.240234 -0.565,-0.454752 -1.37804,-0.454752 -1.1231,0 -1.8259,0.806152 -0.69591,0.806151 -0.69591,2.61138 0,1.915472 0.68902,2.728514 0.68902,0.813041 1.79145,0.813041 0.81304,0 1.39871,-0.516763 0.58566,-0.516764 0.8406,-1.626084 z"
         style="font-weight:bold;-inkscape-font-specification:'Arial Bold';fill:#008000"
         id="path19771" />
      <path
         d="m 157.66024,34.788292 q 0,-1.543401 0.46164,-2.590709 0.34451,-0.771701 0.93706,-1.384928 0.59945,-0.613226 1.30914,-0.909504 0.94395,-0.399631 2.1773,-0.399631 2.23242,0 3.56911,1.384927 1.34359,1.384928 1.34359,3.851614 0,2.446016 -1.32981,3.830943 -1.3298,1.378037 -3.55533,1.378037 -2.25309,0 -3.5829,-1.371146 -1.3298,-1.378038 -1.3298,-3.789603 z m 2.1015,-0.0689 q 0,1.715656 0.79237,2.60449 0.79237,0.881943 2.01194,0.881943 1.21956,0 1.99815,-0.875053 0.78548,-0.881944 0.78548,-2.638941 0,-1.736327 -0.76481,-2.59071 -0.75792,-0.854383 -2.01882,-0.854383 -1.26091,0 -2.03261,0.868163 -0.7717,0.861274 -0.7717,2.604491 z"
         style="font-weight:bold;-inkscape-font-specification:'Arial Bold';fill:#008000"
         id="path19773" />
      <path
         d="m 172.96334,29.675775 h 3.72759 q 1.2609,0 1.92236,0.192925 0.88884,0.261827 1.52273,0.930175 0.6339,0.668348 0.96463,1.639864 0.33073,0.964626 0.33073,2.384004 0,1.247124 -0.31006,2.149738 -0.37896,1.10243 -1.08176,1.784558 -0.53054,0.516764 -1.43316,0.806152 -0.67524,0.213596 -1.80523,0.213596 h -3.83783 z m 2.03949,1.708766 v 6.69037 h 1.52274 q 0.85438,0 1.23334,-0.09646 0.49609,-0.124023 0.81993,-0.420301 0.33073,-0.296278 0.53744,-0.971516 0.2067,-0.682129 0.2067,-1.85346 0,-1.171332 -0.2067,-1.798339 -0.20671,-0.627006 -0.57878,-0.978406 -0.37207,-0.351399 -0.94396,-0.475423 -0.42719,-0.09646 -1.67431,-0.09646 z"
         style="font-weight:bold;-inkscape-font-specification:'Arial Bold';fill:#008000"
         id="path19775" />
      <path
         d="M 187.08134,39.776787 V 29.675775 h 7.48963 v 1.708766 h -5.45014 v 2.23931 h 5.07118 v 1.701876 h -5.07118 v 2.749184 h 5.64306 v 1.701876 z"
         style="font-weight:bold;-inkscape-font-specification:'Arial Bold';fill:#008000"
         id="path19777" />
    </g>
  </g>
</svg>
