<?xml version="1.0" encoding="UTF-8" standalone="no"?>
<!-- Created with Inkscape (http://www.inkscape.org/) -->

<svg
   width="200"
   height="44"
   viewBox="0 0 58.208333 12.805833"
   version="1.1"
   id="svg5"
   inkscape:version="1.1.1 (3bf5ae0d25, 2021-09-20)"
   sodipodi:docname="drawing-01122123.svg"
   xmlns:inkscape="http://www.inkscape.org/namespaces/inkscape"
   xmlns:sodipodi="http://sodipodi.sourceforge.net/DTD/sodipodi-0.dtd"
   xmlns="http://www.w3.org/2000/svg"
   xmlns:svg="http://www.w3.org/2000/svg">
  <sodipodi:namedview
     id="namedview7"
     pagecolor="#ffffff"
     bordercolor="#666666"
     borderopacity="0"
     inkscape:pageshadow="2"
     inkscape:pageopacity="1"
     inkscape:pagecheckerboard="false"
     inkscape:document-units="mm"
     showgrid="false"
     units="px"
     scale-x="1.1"
     inkscape:zoom="3.3923681"
     inkscape:cx="161.68646"
     inkscape:cy="17.244591"
     inkscape:window-width="1366"
     inkscape:window-height="745"
     inkscape:window-x="-8"
     inkscape:window-y="-8"
     inkscape:window-maximized="1"
     inkscape:current-layer="layer1" />
  <defs
     id="defs2" />
  <g
     inkscape:label="Layer 1"
     inkscape:groupmode="layer"
     id="layer1">
    <path
       id="rect1161"
       style="opacity:0.7;fill:#ffffff;stroke:#008000;stroke-width:0.291042"
       d="M 0.17158614,0 H 58.253495 V 12.86896 H 0.17158614 Z" />
    <path
       id="path847"
       style="fill:#008000;fill-rule:evenodd;stroke:#008000"
       transform="matrix(0.29104166,0,0,0.29104166,3.4132546,2.9354325)"
       d="M 8.84338,11.201614 C 9.2572132,12.221418 7.6728753,12.262589 7.1483987,11.889432 5.7270996,10.878202 6.3241412,8.7625719 7.4677439,7.8116519 9.513381,6.1106792 12.54404,7.0911179 13.928324,9.1381603 15.959816,12.142277 14.553549,16.194489 11.594652,17.981539 7.6509078,20.363396 2.5468844,18.515731 0.36847379,14.640705 -2.3728336,9.7643791 -0.07703554,3.5959293 4.7164718,1.031727 10.522052,-2.0738656 17.761418,0.67351259 20.708249,6.3868882 24.180987,13.119904 20.980043,21.433981 14.345924,24.761464 6.6865711,28.603175 -2.7046351,24.947423 -6.4114512,17.391977 -10.623371,8.8069985 -6.5119806,-1.662974 1.9651997,-5.748198 11.475315,-10.331202 23.025216,-5.763593 27.488174,3.6356161 32.442903,14.07052 27.418654,26.701204 17.097196,31.541389" />
    <g
       aria-label="NIGERIA"
       id="text1817"
       style="font-size:10.8656px;line-height:1.25;font-family:Arial;-inkscape-font-specification:Arial;stroke-width:0.291042">
      <path
         d="M 13.179101,8.4935141 V 0.71569714 h 1.527975 L 17.890357,5.9097509 V 0.71569714 h 1.459004 V 8.4935141 h -1.575724 l -3.135532,-5.072028 v 5.072028 z"
         style="font-weight:bold;-inkscape-font-specification:'Arial Bold'"
         id="path16395" />
      <path
         d="M 20.962224,8.4935141 V 0.71569714 h 1.570418 V 8.4935141 Z"
         style="font-weight:bold;-inkscape-font-specification:'Arial Bold'"
         id="path16397" />
      <path
         d="M 27.647114,5.6338665 V 4.3234158 h 3.384889 v 3.0983936 q -0.493408,0.4774922 -1.432476,0.8435695 -0.933763,0.3607719 -1.894053,0.3607719 -1.220257,0 -2.127493,-0.509325 -0.907235,-0.5146305 -1.363505,-1.4643093 -0.45627,-0.9549844 -0.45627,-2.0744382 0,-1.2149523 0.509325,-2.1593258 0.509325,-0.9443734 1.490836,-1.44839287 0.748071,-0.38729921 1.86222,-0.38729921 1.448393,0 2.260129,0.61012888 0.817043,0.6048234 1.050483,1.6765281 L 29.371391,3.1615181 Q 29.206922,2.5885275 28.750652,2.2595885 28.299687,1.925344 27.620587,1.925344 q -1.029261,0 -1.63939,0.6525726 -0.604823,0.6525726 -0.604823,1.936496 0,1.3847273 0.615434,2.0797437 0.615434,0.6897109 1.612862,0.6897109 0.493409,0 0.986818,-0.1909968 0.498714,-0.1963024 0.85418,-0.4721867 V 5.6338665 Z"
         style="font-weight:bold;-inkscape-font-specification:'Arial Bold'"
         id="path16399" />
      <path
         d="M 32.480396,8.4935141 V 0.71569714 H 38.24744 V 2.0314533 h -4.196625 v 1.7242773 h 3.904825 v 1.3104508 h -3.904825 v 2.1168819 h 4.345179 v 1.3104508 z"
         style="font-weight:bold;-inkscape-font-specification:'Arial Bold'"
         id="path16401" />
      <path
         d="M 39.732972,8.4935141 V 0.71569714 h 3.305307 q 1.246785,0 1.809165,0.21221874 0.567685,0.20691332 0.907235,0.74276562 0.33955,0.5358523 0.33955,1.2255632 0,0.8754023 -0.51463,1.4483929 -0.514631,0.5676852 -1.538586,0.7162383 0.509325,0.2971062 0.838264,0.6525726 0.334244,0.3554664 0.896624,1.2627015 L 46.72558,8.4935141 H 44.847444 L 43.712074,6.8010696 Q 43.10725,5.8938345 42.884421,5.6603938 42.661591,5.4216478 42.412234,5.3367603 42.162877,5.2465673 41.621719,5.2465673 h -0.318328 v 3.2469468 z m 1.570419,-4.4884264 h 1.161898 q 1.130064,0 1.411254,-0.095498 0.28119,-0.095498 0.440354,-0.328939 0.159164,-0.2334407 0.159164,-0.5836016 0,-0.3926047 -0.212219,-0.6313507 -0.206913,-0.2440516 -0.588907,-0.3077172 -0.190997,-0.026527 -1.145981,-0.026527 h -1.225563 z"
         style="font-weight:bold;-inkscape-font-specification:'Arial Bold'"
         id="path16403" />
      <path
         d="M 47.526706,8.4935141 V 0.71569714 h 1.570419 V 8.4935141 Z"
         style="font-weight:bold;-inkscape-font-specification:'Arial Bold'"
         id="path16405" />
      <path
         d="m 57.607095,8.4935141 h -1.708361 l -0.6791,-1.7667211 h -3.109005 l -0.641961,1.7667211 h -1.665917 l 3.029422,-7.77781696 h 1.660612 z M 54.715614,5.4163423 53.64391,2.5301674 52.593427,5.4163423 Z"
         style="font-weight:bold;-inkscape-font-specification:'Arial Bold'"
         id="path16407" />
    </g>
    <g
       aria-label="P O S T A L  C O D E"
       transform="scale(1.0588963,0.94437958)"
       id="text7287"
       style="font-size:4.44035px;line-height:1.25;font-family:Arial;-inkscape-font-specification:Arial;fill:#008000;stroke-width:0.291042">
      <path
         d="M 12.387036,12.847689 V 9.6691959 h 1.029866 q 0.585398,0 0.763185,0.047699 0.273186,0.071549 0.457478,0.312212 0.184292,0.238495 0.184292,0.61792 0,0.292699 -0.106239,0.492168 -0.106239,0.199468 -0.271018,0.31438 -0.16261,0.112743 -0.331725,0.149602 -0.229823,0.04553 -0.665619,0.04553 h -0.418451 v 1.198982 z m 0.641769,-2.640794 v 0.901946 h 0.351239 q 0.379424,0 0.507344,-0.04987 0.127921,-0.04987 0.199469,-0.156106 0.07372,-0.106238 0.07372,-0.247168 0,-0.173451 -0.101903,-0.286194 -0.101902,-0.112743 -0.258008,-0.140929 -0.114912,-0.02168 -0.461814,-0.02168 z"
         style="font-weight:bold;-inkscape-font-specification:'Arial Bold'"
         id="path16410" />
      <path
         d="m 16.372076,11.277956 q 0,-0.485664 0.145266,-0.815221 0.108407,-0.242832 0.294867,-0.435796 0.188628,-0.1929645 0.411946,-0.2861945 0.297035,-0.1257521 0.685132,-0.1257521 0.702478,0 1.123097,0.4357956 0.422787,0.435797 0.422787,1.211991 0,0.769689 -0.418451,1.205485 -0.418451,0.433628 -1.11876,0.433628 -0.708982,0 -1.127433,-0.43146 -0.418451,-0.433628 -0.418451,-1.192476 z m 0.661283,-0.02168 q 0,0.539867 0.249336,0.819557 0.249336,0.277522 0.633097,0.277522 0.383761,0 0.62876,-0.275354 0.247168,-0.277522 0.247168,-0.830397 0,-0.546372 -0.240663,-0.815221 -0.238496,-0.268849 -0.635265,-0.268849 -0.39677,0 -0.639601,0.273185 -0.242832,0.271018 -0.242832,0.819557 z"
         style="font-weight:bold;-inkscape-font-specification:'Arial Bold'"
         id="path16412" />
      <path
         d="m 21.027072,11.813486 0.624424,-0.06071 q 0.05637,0.31438 0.227655,0.461814 0.173451,0.147433 0.46615,0.147433 0.310044,0 0.46615,-0.130088 0.158274,-0.132257 0.158274,-0.307876 0,-0.112743 -0.06721,-0.190796 -0.06504,-0.08022 -0.229823,-0.138761 -0.112743,-0.03903 -0.513849,-0.138761 -0.516017,-0.12792 -0.724159,-0.31438 -0.292699,-0.262345 -0.292699,-0.639601 0,-0.242832 0.136593,-0.453142 0.138761,-0.2124773 0.39677,-0.3230525 0.260176,-0.1105751 0.626592,-0.1105751 0.598407,0 0.899778,0.2623449 0.30354,0.2623447 0.318717,0.7003087 l -0.64177,0.02819 q -0.04119,-0.245 -0.177787,-0.351238 -0.134425,-0.108407 -0.405442,-0.108407 -0.27969,0 -0.437965,0.114911 -0.101902,0.07372 -0.101902,0.197301 0,0.112743 0.0954,0.192964 0.121416,0.101903 0.589734,0.212478 0.468318,0.110575 0.691637,0.229823 0.225486,0.117079 0.351238,0.323052 0.12792,0.203806 0.12792,0.505177 0,0.273186 -0.151769,0.511681 -0.15177,0.238495 -0.429292,0.355575 -0.277522,0.114911 -0.691637,0.114911 -0.602742,0 -0.925795,-0.277522 -0.323053,-0.27969 -0.385929,-0.813052 z"
         style="font-weight:bold;-inkscape-font-specification:'Arial Bold'"
         id="path16414" />
      <path
         d="M 26.100519,12.847689 V 10.206895 H 25.157378 V 9.6691959 h 2.525883 v 0.5376991 h -0.940973 v 2.640794 z"
         style="font-weight:bold;-inkscape-font-specification:'Arial Bold'"
         id="path16416" />
      <path
         d="m 32.032548,12.847689 h -0.698141 l -0.277521,-0.721991 h -1.27053 l -0.262345,0.721991 H 28.843215 L 30.081223,9.6691959 H 30.75985 Z M 30.850912,11.590168 30.412948,10.4107 29.983656,11.590168 Z"
         style="font-weight:bold;-inkscape-font-specification:'Arial Bold'"
         id="path16418" />
      <path
         d="M 33.459185,12.847689 V 9.6952136 h 0.641769 v 2.6169444 h 1.595751 v 0.535531 z"
         style="font-weight:bold;-inkscape-font-specification:'Arial Bold'"
         id="path16420" />
      <path
         d="m 40.575019,11.679061 0.622256,0.197301 q -0.143097,0.520354 -0.476991,0.774026 -0.331725,0.251504 -0.843406,0.251504 -0.633097,0 -1.040707,-0.43146 -0.40761,-0.433628 -0.40761,-1.183804 0,-0.793539 0.409778,-1.231503 0.409779,-0.4401326 1.077566,-0.4401326 0.583229,0 0.947477,0.3447342 0.216814,0.2038054 0.325221,0.5853974 l -0.635265,0.15177 q -0.05637,-0.247168 -0.236328,-0.390265 -0.177787,-0.143097 -0.433628,-0.143097 -0.353406,0 -0.574557,0.253672 -0.218982,0.253672 -0.218982,0.821725 0,0.602743 0.216814,0.858583 0.216814,0.255841 0.563717,0.255841 0.25584,0 0.440132,-0.162611 0.184292,-0.16261 0.264513,-0.511681 z"
         style="font-weight:bold;-inkscape-font-specification:'Arial Bold'"
         id="path16422" />
      <path
         d="m 42.851565,11.277956 q 0,-0.485664 0.145266,-0.815221 0.108407,-0.242832 0.294867,-0.435796 0.188628,-0.1929645 0.411946,-0.2861945 0.297035,-0.1257521 0.685132,-0.1257521 0.702478,0 1.123097,0.4357956 0.422787,0.435797 0.422787,1.211991 0,0.769689 -0.418451,1.205485 -0.418451,0.433628 -1.11876,0.433628 -0.708982,0 -1.127433,-0.43146 -0.418451,-0.433628 -0.418451,-1.192476 z m 0.661283,-0.02168 q 0,0.539867 0.249336,0.819557 0.249336,0.277522 0.633097,0.277522 0.38376,0 0.62876,-0.275354 0.247168,-0.277522 0.247168,-0.830397 0,-0.546372 -0.240663,-0.815221 -0.238496,-0.268849 -0.635265,-0.268849 -0.39677,0 -0.639602,0.273185 -0.242831,0.271018 -0.242831,0.819557 z"
         style="font-weight:bold;-inkscape-font-specification:'Arial Bold'"
         id="path16424" />
      <path
         d="m 47.667003,9.6691959 h 1.172963 q 0.39677,0 0.604911,0.060708 0.27969,0.082389 0.479159,0.2926992 0.199469,0.210309 0.30354,0.516017 0.10407,0.303539 0.10407,0.750176 0,0.392434 -0.09757,0.67646 -0.119248,0.346902 -0.340398,0.561548 -0.166947,0.16261 -0.450973,0.253672 -0.212478,0.06721 -0.568053,0.06721 h -1.207653 z m 0.641769,0.5376991 v 2.105263 h 0.479159 q 0.268849,0 0.388097,-0.03035 0.156106,-0.03903 0.258008,-0.132256 0.104071,-0.09323 0.169115,-0.305708 0.06505,-0.214646 0.06505,-0.58323 0,-0.368583 -0.06505,-0.565884 -0.06504,-0.197301 -0.182123,-0.307876 -0.11708,-0.110575 -0.297035,-0.149601 -0.134425,-0.03035 -0.526858,-0.03035 z"
         style="font-weight:bold;-inkscape-font-specification:'Arial Bold'"
         id="path16426" />
      <path
         d="M 52.10952,12.847689 V 9.6691959 h 2.356768 V 10.206895 H 52.75129 v 0.704645 h 1.595751 v 0.53553 H 52.75129 v 0.865088 h 1.775706 v 0.535531 z"
         style="font-weight:bold;-inkscape-font-specification:'Arial Bold'"
         id="path16428" />
    </g>
  </g>
</svg>
