<?xml version="1.0" encoding="UTF-8" standalone="no"?>
<!-- Created with Inkscape (http://www.inkscape.org/) -->

<svg
   width="227mm"
   height="44mm"
   viewBox="0 0 227 44"
   version="1.1"
   id="svg485"
   inkscape:version="1.1.1 (3bf5ae0d25, 2021-09-20)"
   sodipodi:docname="drawing-0111.svg"
   xmlns:inkscape="http://www.inkscape.org/namespaces/inkscape"
   xmlns:sodipodi="http://sodipodi.sourceforge.net/DTD/sodipodi-0.dtd"
   xmlns="http://www.w3.org/2000/svg"
   xmlns:svg="http://www.w3.org/2000/svg">
  <sodipodi:namedview
     id="namedview487"
     pagecolor="#ffffff"
     bordercolor="#666666"
     borderopacity="1.0"
     inkscape:pageshadow="2"
     inkscape:pageopacity="0.0"
     inkscape:pagecheckerboard="0"
     inkscape:document-units="mm"
     showgrid="false"
     width="227mm"
     units="mm"
     showborder="true"
     inkscape:snap-object-midpoints="false"
     inkscape:snap-others="false"
     inkscape:zoom="0.49887767"
     inkscape:cx="562.26209"
     inkscape:cy="309.69516"
     inkscape:window-width="1366"
     inkscape:window-height="745"
     inkscape:window-x="-8"
     inkscape:window-y="-8"
     inkscape:window-maximized="1"
     inkscape:current-layer="layer1" />
  <defs
     id="defs482">
    <linearGradient
       id="linearGradient24690"
       inkscape:swatch="solid">
      <stop
         style="stop-color:#000000;stop-opacity:1;"
         offset="0"
         id="stop24688" />
    </linearGradient>
    <meshgradient
       inkscape:collect="always"
       id="meshgradient24694"
       gradientUnits="userSpaceOnUse"
       x="48.772423"
       y="13.720081">
      <meshrow
         id="meshrow24696">
        <meshpatch
           id="meshpatch24698">
          <stop
             path="c 34.9882,0  69.9763,0  104.964,0"
             style="stop-color:#000000;stop-opacity:1"
             id="stop24700" />
          <stop
             path="c 0,33.6336  0,67.2672  0,100.901"
             style="stop-color:#ffffff;stop-opacity:1"
             id="stop24702" />
          <stop
             path="c -34.9882,0  -69.9763,0  -104.964,0"
             style="stop-color:#000000;stop-opacity:1"
             id="stop24704" />
          <stop
             path="c 0,-33.6336  0,-67.2672  0,-100.901"
             style="stop-color:#ffffff;stop-opacity:1"
             id="stop24706" />
        </meshpatch>
      </meshrow>
    </meshgradient>
  </defs>
  <g
     inkscape:label="Layer 1"
     inkscape:groupmode="layer"
     id="layer1">
    <path
       id="rect20827"
       style="opacity:0.7;fill:#0b8474;stroke-width:0.264583;fill-opacity:1"
       d="M 0.53511888,0.53035718 H 50.388688 V 44.549999 H 0.53511888 Z" />
    <g
       aria-label="NIGERIA"
       transform="matrix(1.0541075,0,0,0.94866985,-3.1750001,0)"
       id="text1569"
       style="font-size:40.8804px;line-height:1.25;font-family:'Berlin Sans FB Demi';-inkscape-font-specification:'Berlin Sans FB Demi';stroke-width:0.264583;fill:#ffffff">
      <path
         d="m 82.131167,1.5194374 q 0,2.2755692 -0.199611,6.8466688 -0.17965,4.5511388 -0.17965,6.8466688 v 13.154387 q 0,0.538951 -0.578873,0.538951 -0.479067,0 -1.457163,0.03992 -0.958134,0.03992 -1.437202,0.03992 -0.518989,0 -1.556968,-0.07984 -1.037979,-0.07985 -1.556968,-0.07985 -0.359301,0 -0.858329,-0.658717 -1.437202,-1.93623 -6.467407,-8.583288 -1.377319,-1.856385 -4.191838,-5.46935 -0.07984,-0.119767 -0.299417,-0.239534 -0.15969,0.139728 -0.15969,0.439145 0,2.315492 0.119767,6.946475 0.139728,4.630982 0.139728,6.946474 0,0.69864 -0.53895,0.69864 h -6.906553 q -0.578872,0 -0.578872,-0.618795 0,-2.155803 0.199611,-6.50733 0.219572,-4.351527 0.219572,-6.527291 0,-2.29553 -0.199611,-6.8666297 -0.17965,-4.5710996 -0.17965,-6.8466688 0,-0.4391449 0.778484,-0.4391449 1.157746,0 2.854442,-0.1596891 0.399223,-0.0399223 1.57693,-0.25949474 0.998056,-0.1796502 1.576929,-0.1796502 0.239534,0 0.738562,0.67867854 l 7.445503,10.2001389 q 0.998057,1.377319 3.014131,4.032149 0.499028,0.618795 0.858329,0.618795 0.259495,0 0.259495,-1.556968 0,-2.095919 -0.239534,-6.3077181 -0.219572,-4.2117992 -0.219572,-6.3276794 0,-0.7385619 0.419183,-0.7385619 1.197668,0 3.612966,-0.099806 2.415297,-0.0998057 3.612965,-0.0998057 0.379261,0 0.379261,0.6187952 z"
         id="path21175"
         style="fill:#ffffff" />
      <path
         d="m 93.948158,14.154835 q 0,2.355414 0.119766,7.086202 0.119767,4.730789 0.119767,7.086203 0,0.399222 -0.17965,0.499028 -0.03992,0.01996 -0.518989,0.07985 -1.297474,0.159689 -3.473238,0.159689 -2.914325,0 -3.712771,-0.159689 -0.578872,-0.119767 -0.578872,-0.618795 0,0.319378 0.17965,-3.51316 0.3593,-8.084259 0.3593,-10.619323 0,-2.135841 -0.139728,-6.4075239 -0.139728,-4.2716826 -0.139728,-6.4075239 0,-0.43914497 0.459106,-0.43914497 0.618795,0 1.856386,0.0598834 1.257551,0.0598834 1.876346,0.0598834 0.618795,0 1.816463,-0.0598834 1.21763,-0.0598834 1.836425,-0.0598834 0.578873,0 0.578873,0.43914497 0,2.1358413 -0.239534,6.4075239 -0.219572,4.2716829 -0.219572,6.4075239 z"
         id="path21177"
         style="fill:#ffffff" />
      <path
         d="m 124.28908,28.267356 q 0.0399,0.538951 -0.55891,0.538951 -0.37926,0 -2.19573,-0.439145 -1.7965,-0.439145 -2.21568,-0.598834 -4.17188,1.636813 -8.00442,1.636813 -6.16799,0 -10.12029,-4.111994 -3.912384,-4.05211 -3.912384,-10.240061 0,-6.3276794 3.792614,-10.4995563 3.91238,-4.31160488 10.16022,-4.31160488 3.03409,0 5.70888,1.15774578 2.89437,1.2775125 4.55114,3.593004 0.33934,0.4790672 0.33934,0.6786786 0,0.6387562 -1.7965,2.8744032 -1.77654,2.2156856 -2.29553,2.2156856 -0.11977,0 -0.91821,-0.8184062 -0.9781,-0.9780956 -1.99612,-1.5170462 -1.51704,-0.8184065 -3.35347,-0.8184065 -2.99417,0 -4.75075,2.235647 -1.63681,2.0559969 -1.63681,5.1300109 0,3.253665 1.6967,5.149973 1.75658,1.956191 4.97032,1.956191 2.03603,0 4.55114,-1.018018 -0.0599,-0.658717 -0.3593,-3.35347 -0.2595,-2.075958 -0.2595,-3.353471 0,-0.379261 0.2595,-0.459106 0.0998,-0.03992 0.31937,-0.03992 0.57888,0 1.73662,0.119767 1.17771,0.0998 1.77654,0.0998 0.63876,0 1.91627,-0.07984 1.27751,-0.09981 1.91627,-0.09981 0.49903,0 0.49903,0.658718 0,0.958134 -0.11977,2.894364 -0.0998,1.93623 -0.0998,2.894364 0,2.574987 0.37926,7.704998 z"
         id="path21179"
         style="fill:#ffffff" />
      <path
         d="m 147.52384,22.6982 q 0,0.858329 -0.33934,3.153859 -0.3593,2.495142 -0.63876,2.974209 -0.23953,0.379262 -0.65871,0.379262 -0.17965,0 -0.59884,-0.05988 -1.45716,-0.199611 -8.50344,-0.199611 -1.53701,0 -4.5711,-0.01996 -3.03409,-0.01996 -4.55114,-0.01996 -0.65871,0 -0.65871,-0.578873 0,-2.235647 0.23953,-6.706941 0.25949,-4.491255 0.25949,-6.726902 0,-2.275569 -0.23953,-8.4834819 -0.0599,-1.5968907 -0.21957,-4.7707109 l -0.02,-0.2794559 q -0.0399,-0.45910607 0.49902,-0.45910607 1.47713,0 4.43138,0.0798445 2.97421,0.0798445 4.45133,0.0798445 1.45716,0 4.39145,-0.0798445 2.93428,-0.0798445 4.39145,-0.0798445 1.03798,0 1.19767,0.77848417 0.0998,0.4591061 0.29941,2.7945587 0.21958,2.3154915 0.21958,2.8145199 0,0.4191838 -0.39923,0.4191838 -0.11976,0 -0.41918,-0.019961 -5.30966,-0.439145 -9.54142,-0.439145 -1.05794,0 -1.29748,0.4990284 -0.0998,0.2395336 -0.0998,1.5370072 0,1.3573566 0.39922,1.7965016 0.33934,0.379262 1.29747,0.379262 0.19962,0 0.77849,-0.01996 0.57887,-0.03992 0.95813,-0.03992 2.51511,0 5.09009,-0.139728 0.21957,-0.01996 1.09786,-0.09981 0.67868,-0.07985 1.07791,-0.07985 0.47906,0 0.47906,0.459106 0,-0.419183 -0.3593,3.054054 -0.15969,1.596891 -0.15969,3.193781 0,0.399223 -0.57887,0.399223 0,0 -1.7965,-0.199611 -1.13779,-0.119767 -5.1899,-0.119767 h -2.11588 q -0.8184,0 -0.95813,0.399222 -0.02,0.09981 -0.02,1.237591 0,1.517046 0.19961,1.956191 0.33934,0.758523 2.55502,0.898251 -0.0399,0 2.91433,0 1.05794,0 3.1339,-0.17965 2.09592,-0.199612 3.1339,-0.199612 0.43914,0 0.43914,0.718601 z"
         id="path21181"
         style="fill:#ffffff" />
      <path
         d="m 173.97234,28.706501 q 0,0.139728 -0.39922,0.199612 -0.75852,0.119766 -3.81258,0.119766 -2.61491,0 -3.55308,-0.119766 -0.43914,-0.05988 -0.49903,-0.09981 -0.11976,-0.05988 -0.27945,-0.399223 -0.29942,-0.778484 -0.87829,-2.315491 -0.77849,-1.996114 -2.43526,-5.888535 -0.3593,-0.778484 -1.65677,-0.858328 0.59883,0.03992 -2.056,0.03992 -0.29942,0 -0.29942,1.018018 0,1.357357 0.23953,4.05211 0.2595,2.694753 0.2595,4.05211 0,0.339339 -0.17965,0.399223 -0.27946,0.01996 -0.55891,0.03992 -1.17771,0.07984 -3.67285,0.07984 -2.85444,0 -3.43332,-0.119766 -0.57887,-0.119767 -0.57887,-0.618795 0,-2.195725 0.19961,-6.627097 0.21958,-4.431371 0.21958,-6.647057 0,-8.4435598 -0.37927,-13.1743485 l -0.02,-0.2794559 q -0.02,-0.3393392 0.6188,-0.459106 0.65871,-0.11976683 6.1081,-0.23953364 3.69281,-0.0798445 5.88854,-0.0798445 4.55114,0 7.42554,2.05599674 3.25367,2.3154915 3.25367,6.6869797 0,2.9143251 -0.83837,4.6509441 -0.83837,1.736619 -3.09398,3.373432 -0.4591,0.319378 -0.4591,0.598834 0,-0.01996 2.43525,5.010244 2.43526,5.030206 2.43526,5.549195 z m -8.38367,-17.905137 q 0,-2.4352578 -1.59689,-3.3734311 -1.23759,-0.7186008 -3.87246,-0.7186008 -1.89631,0 -2.01608,0.5788729 -0.11977,0.6786785 -0.11977,3.912382 0,0.459106 0.02,1.357357 0.02,0.898251 0.02,1.337396 0,0.09981 0.63875,0.199612 1.21763,0.17965 2.55503,0.17965 4.37149,0 4.37149,-3.473238 z"
         id="path21183"
         style="fill:#ffffff" />
      <path
         d="m 184.33217,14.154835 q 0,2.355414 0.11977,7.086202 0.11976,4.730789 0.11976,7.086203 0,0.399222 -0.17965,0.499028 -0.0399,0.01996 -0.51899,0.07985 -1.29747,0.159689 -3.47323,0.159689 -2.91433,0 -3.71277,-0.159689 -0.57888,-0.119767 -0.57888,-0.618795 0,0.319378 0.17965,-3.51316 0.3593,-8.084259 0.3593,-10.619323 0,-2.135841 -0.13972,-6.4075239 -0.13973,-4.2716826 -0.13973,-6.4075239 0,-0.43914497 0.4591,-0.43914497 0.6188,0 1.85639,0.0598834 1.25755,0.0598834 1.87635,0.0598834 0.61879,0 1.81646,-0.0598834 1.21763,-0.0598834 1.83642,-0.0598834 0.57888,0 0.57888,0.43914497 0,2.1358413 -0.23954,6.4075239 -0.21957,4.2716829 -0.21957,6.4075239 z"
         id="path21185"
         style="fill:#ffffff" />
      <path
         d="m 214.73298,28.407084 q 0,0.359301 -0.49902,0.499029 -0.59884,0.159689 -3.71277,0.159689 -2.85445,0 -3.67285,-0.159689 -0.67868,-0.139728 -0.85833,-0.898251 -0.67868,-2.874404 -1.05794,-3.074015 -0.31938,-0.139728 -5.34959,-0.139728 -3.39339,0 -3.61296,0.17965 -0.33934,0.319378 -0.75852,2.135842 -0.37927,1.656774 -0.91822,1.796502 -0.67867,0.159689 -4.55113,0.159689 -3.05406,0 -3.05406,-0.578873 0,-0.51899 4.51122,-12.755165 4.89048,-13.2342311 5.30966,-14.5516659 0.23953,-0.75852308 0.55891,-0.75852308 0.53895,0 1.65678,0.0998057 1.13778,0.0998057 1.69669,0.0998057 0.53895,0 1.57693,-0.0598834 1.05794,-0.0798445 1.57693,-0.0798445 0.37926,0 0.69864,0.65871738 0.9781,2.0959191 5.70889,14.3720161 4.75074,12.355942 4.75074,12.894892 z M 200.58054,10.222492 q -0.41918,0.87829 -1.41724,3.812576 -1.0779,3.113937 -1.0779,3.652888 0,0.3593 1.19767,0.399222 0.61879,0.03992 2.03603,0.03992 1.31744,0 1.45717,-0.319379 0.0399,-0.0998 0.0399,-0.279455 0,-0.658718 -0.91821,-3.632927 -0.89826,-2.874403 -1.31744,-3.672848 z"
         id="path21187"
         style="fill:#ffffff" />
    </g>
    <g
       aria-label="Z I P  C O D E"
       transform="matrix(1.4223982,0,0,0.88622977,-3.1750001,-11.257515)"
       id="text1903"
       style="font-size:20.0716px;line-height:1.25;stroke-width:0.235656;fill:#ffffff">
      <path
         d="m 50.116931,61.246272 q -0.578235,0 -1.734704,-0.0588 -1.156469,-0.0588 -1.734704,-0.0588 -0.823249,0 -2.459947,-0.0196 -1.636698,-0.0196 -2.459947,-0.0196 -0.352821,0 -0.401824,-0.225413 -0.0196,-0.627238 -0.196012,-1.862112 -0.117607,-0.480228 -0.117607,-0.539032 0,-0.049 2.401144,-3.792826 2.401143,-3.753625 2.401143,-4.037842 0,-0.156809 -0.254815,-0.156809 -0.686041,0 -2.077724,0.0392 -1.381883,0.0392 -2.077724,0.0392 -0.215613,0 -0.215613,-0.225413 0,-0.362622 0.215613,-1.411284 0.225413,-1.048663 0.225413,-1.519091 0,-0.15681 0.264616,-0.15681 1.352481,0 4.057443,0.0588 2.714762,0.0588 4.067243,0.0588 0.205812,0 0.264616,0.225414 0.17641,0.784047 0.17641,2.244334 0,0.176411 -0.17641,0.441026 -0.617437,0.891854 -2.597156,3.939836 -2.254135,3.479208 -2.254135,3.645818 0,0.07841 0.16661,0.07841 1.989519,0 3.057783,-0.07841 0.215613,-0.0098 0.940856,-0.117607 0.617437,-0.09801 0.911455,-0.09801 0.137208,0 0.137208,0.205812 0,1.597496 -0.284217,3.185191 -0.0392,0.215613 -0.245014,0.215613 z"
         style="font-family:'Berlin Sans FB Demi';-inkscape-font-specification:'Berlin Sans FB Demi';stroke-width:0.235656;fill:#ffffff"
         id="path21190" />
      <path
         d="m 61.122988,53.846829 q 0,1.156469 0.0588,3.479208 0.0588,2.322739 0.0588,3.479208 0,0.196012 -0.08821,0.245015 -0.0196,0.0098 -0.254815,0.0392 -0.637039,0.07841 -1.705302,0.07841 -1.430886,0 -1.822909,-0.07841 -0.284217,-0.0588 -0.284217,-0.303818 0,0.156809 0.08821,-1.724903 0.17641,-3.969237 0.17641,-5.213912 0,-1.048662 -0.0686,-3.145988 -0.0686,-2.097325 -0.0686,-3.145988 0,-0.215613 0.225414,-0.215613 0.303818,0 0.911454,0.0294 0.617437,0.0294 0.921255,0.0294 0.303818,0 0.891854,-0.0294 0.597835,-0.0294 0.901653,-0.0294 0.284217,0 0.284217,0.215613 0,1.048663 -0.117607,3.145988 -0.107806,2.097326 -0.107806,3.145988 z"
         style="font-family:'Berlin Sans FB Demi';-inkscape-font-specification:'Berlin Sans FB Demi';stroke-width:0.235656;fill:#ffffff"
         id="path21192" />
      <path
         d="m 79.88131,52.582554 q 0,2.371741 -1.244675,3.841829 -1.332879,1.558294 -3.675219,1.558294 -0.392024,0 -1.185871,-0.0392 -0.784047,-0.049 -1.176071,-0.049 -0.421425,0 -0.421425,0.362622 0,0.450827 0.08821,1.34268 0.08821,0.891854 0.08821,1.33288 0,0.225413 -0.205812,0.225413 -0.597836,0 -1.793508,-0.0392 -1.195671,-0.0294 -1.793507,-0.0294 -0.284217,0 -0.284217,-0.284217 0,-1.087865 0.0294,-3.263595 0.0392,-2.18553 0.0392,-3.273396 0,-3.077383 -0.264616,-6.468386 l -0.0098,-0.137208 q -0.0196,-0.186212 0.294017,-0.225414 0.764446,-0.09801 3.371402,-0.09801 1.538692,0 2.949976,0.0392 2.322739,0.0686 3.743824,1.460287 1.450487,1.430885 1.450487,3.743824 z m -3.910434,0.156809 q 0,-2.283536 -2.224733,-2.283536 -1.568094,0 -1.646498,0.17641 -0.0686,0.127408 -0.0686,2.263935 0,0.303819 0.0196,0.901654 0.0294,0.588036 0.0294,0.891854 0,0.196011 1.764106,0.196011 2.126727,0 2.126727,-2.146328 z"
         style="font-family:'Berlin Sans FB Demi';-inkscape-font-specification:'Berlin Sans FB Demi';stroke-width:0.235656;fill:#ffffff"
         id="path21194" />
      <path
         d="m 102.70687,58.87453 q 0,0.156809 -0.20581,0.411624 -1.80331,2.146329 -4.792485,2.146329 -3.057783,0 -4.959097,-2.087525 -1.852311,-2.018921 -1.852311,-5.096305 0,-2.979378 1.813109,-5.057102 1.891513,-2.17573 4.812088,-2.17573 3.175386,0 4.978696,1.950316 0.19601,0.215613 0.19601,0.382223 0,0.186211 -0.68604,1.381883 -0.67624,1.195671 -0.85265,1.34268 -0.0784,0.0784 -0.19601,0.0784 -0.049,0 -0.49003,-0.392024 -0.529232,-0.470428 -1.038862,-0.735043 -0.774247,-0.392024 -1.607296,-0.392024 -1.440686,0 -2.303138,1.078065 -0.793847,0.999659 -0.793847,2.469747 0,1.489689 0.793847,2.49915 0.862452,1.097665 2.303138,1.097665 0.852651,0 1.617096,-0.372422 0.49983,-0.245015 1.019262,-0.686041 0.43123,-0.372422 0.48023,-0.372422 0.098,0 0.19601,0.107806 0.15681,0.176411 0.85265,1.225073 0.71544,1.087865 0.71544,1.195672 z"
         style="font-family:'Berlin Sans FB Demi';-inkscape-font-specification:'Berlin Sans FB Demi';stroke-width:0.235656;fill:#ffffff"
         id="path21196" />
      <path
         d="m 122.39625,54.229052 q 0,3.057783 -1.95031,5.125707 -1.98952,2.097325 -5.03751,2.097325 -3.02838,0 -5.0277,-2.116927 -1.96011,-2.067923 -1.96011,-5.106105 0,-3.047982 1.96011,-5.125706 1.99932,-2.126727 5.0277,-2.126727 3.00878,0 5.0179,2.126727 1.96992,2.097325 1.96992,5.125706 z m -3.71442,-0.0196 q 0,-1.470088 -0.89185,-2.499149 -0.93106,-1.078065 -2.38155,-1.078065 -1.38188,0 -2.34234,1.117267 -0.93105,1.078064 -0.93105,2.479548 0,1.49949 0.87225,2.49915 0.92126,1.048662 2.40114,1.048662 1.38189,0 2.35214,-1.107466 0.92126,-1.058463 0.92126,-2.459947 z"
         style="font-family:'Berlin Sans FB Demi';-inkscape-font-specification:'Berlin Sans FB Demi';stroke-width:0.235656;fill:#ffffff"
         id="path21198" />
      <path
         d="m 141.6642,54.140847 q 0,2.881372 -1.85231,4.998299 -1.63669,1.891513 -4.59647,1.989519 -0.56844,0.0196 -3.12639,0.0196 -0.48023,0 -1.45048,-0.0294 -0.96046,-0.0294 -1.44069,-0.0294 -0.28422,0 -0.28422,-0.225413 0,-1.078065 0.0784,-3.234194 0.0882,-2.165929 0.0882,-3.243993 0,-1.127068 -0.0882,-3.371402 -0.0784,-2.254135 -0.0784,-3.371402 0,-0.205812 0.28422,-0.245014 0.69584,-0.0784 2.28354,-0.0784 3.01858,0 3.91043,0.0882 2.32274,0.235214 3.63602,1.176071 1.23487,0.882052 1.95031,2.469747 0.68604,1.49949 0.68604,3.087185 z m -3.75362,0 q 0,-1.656299 -0.98986,-2.704962 -0.99966,-1.087865 -2.64616,-1.087865 -1.50929,0 -1.50929,0.401824 0,0.578235 -0.0196,1.744504 -0.0196,1.15647 -0.0196,1.734704 0,0.568434 0.0196,1.715103 0.0196,1.136868 0.0196,1.715102 0,0.421425 1.5681,0.421425 1.6955,0 2.66576,-1.127067 0.91145,-1.068264 0.91145,-2.812768 z"
         style="font-family:'Berlin Sans FB Demi';-inkscape-font-specification:'Berlin Sans FB Demi';stroke-width:0.235656;fill:#ffffff"
         id="path21200" />
      <path
         d="m 158.23699,58.04148 q 0,0.421425 -0.16661,1.548493 -0.17641,1.225073 -0.31362,1.460287 -0.1176,0.186211 -0.32342,0.186211 -0.0882,0 -0.29401,-0.0294 -0.71545,-0.09801 -4.17505,-0.09801 -0.75465,0 -2.24434,-0.0098 -1.48969,-0.0098 -2.23453,-0.0098 -0.32342,0 -0.32342,-0.284217 0,-1.097665 0.11761,-3.292997 0.1274,-2.205131 0.1274,-3.302797 0,-1.117267 -0.1176,-4.165249 -0.0294,-0.784047 -0.10781,-2.34234 l -0.01,-0.137208 q -0.0196,-0.225414 0.24501,-0.225414 0.72525,0 2.17573,0.0392 1.46029,0.0392 2.18554,0.0392 0.71544,0 2.15612,-0.0392 1.44069,-0.0392 2.15613,-0.0392 0.50963,0 0.58804,0.382223 0.049,0.225414 0.14701,1.372082 0.1078,1.136868 0.1078,1.381883 0,0.205812 -0.19601,0.205812 -0.0588,0 -0.20581,-0.0098 -2.60696,-0.215612 -4.68468,-0.215612 -0.51943,0 -0.63704,0.245014 -0.049,0.117607 -0.049,0.754645 0,0.66644 0.19601,0.882053 0.16661,0.186211 0.63704,0.186211 0.098,0 0.38222,-0.0098 0.28422,-0.0196 0.47043,-0.0196 1.23487,0 2.49915,-0.0686 0.1078,-0.0098 0.53903,-0.049 0.33322,-0.0392 0.52923,-0.0392 0.23522,0 0.23522,0.225414 0,-0.205813 -0.17641,1.499489 -0.0784,0.784047 -0.0784,1.568094 0,0.196012 -0.28422,0.196012 0,0 -0.88205,-0.09801 -0.55863,-0.0588 -2.54815,-0.0588 h -1.03886 q -0.40183,0 -0.47043,0.196012 -0.01,0.049 -0.01,0.607636 0,0.744845 0.098,0.960458 0.16661,0.372422 1.25448,0.441026 -0.0196,0 1.43088,0 0.51944,0 1.5387,-0.08821 1.02906,-0.09801 1.53869,-0.09801 0.21561,0 0.21561,0.352821 z"
         style="font-family:'Berlin Sans FB Demi';-inkscape-font-specification:'Berlin Sans FB Demi';stroke-width:0.235656;fill:#ffffff"
         id="path21202" />
    </g>
    <path
       id="path18406"
       style="fill:#ffffff;fill-rule:evenodd;stroke:url(#meshgradient24694);stroke-width:0.812025;fill-opacity:1;stroke-opacity:1"
       transform="matrix(0,-0.32840665,0.3232756,0,4.1008651,55.010418)"
       d="m 106.23847,62.139484 c -1.80904,-2.412056 2.35889,-3.62858 4.009,-3.006752 4.4717,1.685116 4.36906,7.706489 2.00451,11.024745 -4.22964,5.935582 -12.942801,5.456989 -18.040497,1.002265 -7.481073,-6.537487 -6.588594,-18.254274 -2.1e-5,-25.056243 8.781528,-9.065954 23.592978,-7.739495 32.071988,1.002222 10.66998,11.000559 8.90052,28.944782 -2.00446,39.087741 C 111.07159,98.477944 89.974989,96.260887 78.175498,83.186753 64.270207,67.779337 66.937465,43.518914 82.184451,30.067514 99.7877,14.537341 127.21922,17.656405 142.31944,35.078711 159.47727,54.875042 155.90535,85.482568 136.306,102.22945 114.31849,121.01691 80.531469,116.99141 62.139513,95.213763 41.720956,71.036447 46.200562,34.067375 70.157441,14.031529" />
  </g>
  <script
     id="mesh_polyfill"
     type="text/javascript">
!function(){const t=&quot;http://www.w3.org/2000/svg&quot;,e=&quot;http://www.w3.org/1999/xlink&quot;,s=&quot;http://www.w3.org/1999/xhtml&quot;,r=2;if(document.createElementNS(t,&quot;meshgradient&quot;).x)return;const n=(t,e,s,r)=&gt;{let n=new x(.5*(e.x+s.x),.5*(e.y+s.y)),o=new x(.5*(t.x+e.x),.5*(t.y+e.y)),i=new x(.5*(s.x+r.x),.5*(s.y+r.y)),a=new x(.5*(n.x+o.x),.5*(n.y+o.y)),h=new x(.5*(n.x+i.x),.5*(n.y+i.y)),l=new x(.5*(a.x+h.x),.5*(a.y+h.y));return[[t,o,a,l],[l,h,i,r]]},o=t=&gt;{let e=t[0].distSquared(t[1]),s=t[2].distSquared(t[3]),r=.25*t[0].distSquared(t[2]),n=.25*t[1].distSquared(t[3]),o=e&gt;s?e:s,i=r&gt;n?r:n;return 18*(o&gt;i?o:i)},i=(t,e)=&gt;Math.sqrt(t.distSquared(e)),a=(t,e)=&gt;t.scale(2/3).add(e.scale(1/3)),h=t=&gt;{let e,s,r,n,o,i,a,h=new g;return t.match(/(\w+\(\s*[^)]+\))+/g).forEach(t=&gt;{let l=t.match(/[\w.-]+/g),d=l.shift();switch(d){case&quot;translate&quot;:2===l.length?e=new g(1,0,0,1,l[0],l[1]):(console.error(&quot;mesh.js: translate does not have 2 arguments!&quot;),e=new g(1,0,0,1,0,0)),h=h.append(e);break;case&quot;scale&quot;:1===l.length?s=new g(l[0],0,0,l[0],0,0):2===l.length?s=new g(l[0],0,0,l[1],0,0):(console.error(&quot;mesh.js: scale does not have 1 or 2 arguments!&quot;),s=new g(1,0,0,1,0,0)),h=h.append(s);break;case&quot;rotate&quot;:if(3===l.length&amp;&amp;(e=new g(1,0,0,1,l[1],l[2]),h=h.append(e)),l[0]){r=l[0]*Math.PI/180;let t=Math.cos(r),e=Math.sin(r);Math.abs(t)&lt;1e-16&amp;&amp;(t=0),Math.abs(e)&lt;1e-16&amp;&amp;(e=0),a=new g(t,e,-e,t,0,0),h=h.append(a)}else console.error(&quot;math.js: No argument to rotate transform!&quot;);3===l.length&amp;&amp;(e=new g(1,0,0,1,-l[1],-l[2]),h=h.append(e));break;case&quot;skewX&quot;:l[0]?(r=l[0]*Math.PI/180,n=Math.tan(r),o=new g(1,0,n,1,0,0),h=h.append(o)):console.error(&quot;math.js: No argument to skewX transform!&quot;);break;case&quot;skewY&quot;:l[0]?(r=l[0]*Math.PI/180,n=Math.tan(r),i=new g(1,n,0,1,0,0),h=h.append(i)):console.error(&quot;math.js: No argument to skewY transform!&quot;);break;case&quot;matrix&quot;:6===l.length?h=h.append(new g(...l)):console.error(&quot;math.js: Incorrect number of arguments for matrix!&quot;);break;default:console.error(&quot;mesh.js: Unhandled transform type: &quot;+d)}}),h},l=t=&gt;{let e=[],s=t.split(/[ ,]+/);for(let t=0,r=s.length-1;t&lt;r;t+=2)e.push(new x(parseFloat(s[t]),parseFloat(s[t+1])));return e},d=(t,e)=&gt;{for(let s in e)t.setAttribute(s,e[s])},c=(t,e,s,r,n)=&gt;{let o,i,a=[0,0,0,0];for(let h=0;h&lt;3;++h)e[h]&lt;t[h]&amp;&amp;e[h]&lt;s[h]||t[h]&lt;e[h]&amp;&amp;s[h]&lt;e[h]?a[h]=0:(a[h]=.5*((e[h]-t[h])/r+(s[h]-e[h])/n),o=Math.abs(3*(e[h]-t[h])/r),i=Math.abs(3*(s[h]-e[h])/n),a[h]&gt;o?a[h]=o:a[h]&gt;i&amp;&amp;(a[h]=i));return a},u=[[1,0,0,0,0,0,0,0,0,0,0,0,0,0,0,0],[0,0,0,0,1,0,0,0,0,0,0,0,0,0,0,0],[-3,3,0,0,-2,-1,0,0,0,0,0,0,0,0,0,0],[2,-2,0,0,1,1,0,0,0,0,0,0,0,0,0,0],[0,0,0,0,0,0,0,0,1,0,0,0,0,0,0,0],[0,0,0,0,0,0,0,0,0,0,0,0,1,0,0,0],[0,0,0,0,0,0,0,0,-3,3,0,0,-2,-1,0,0],[0,0,0,0,0,0,0,0,2,-2,0,0,1,1,0,0],[-3,0,3,0,0,0,0,0,-2,0,-1,0,0,0,0,0],[0,0,0,0,-3,0,3,0,0,0,0,0,-2,0,-1,0],[9,-9,-9,9,6,3,-6,-3,6,-6,3,-3,4,2,2,1],[-6,6,6,-6,-3,-3,3,3,-4,4,-2,2,-2,-2,-1,-1],[2,0,-2,0,0,0,0,0,1,0,1,0,0,0,0,0],[0,0,0,0,2,0,-2,0,0,0,0,0,1,0,1,0],[-6,6,6,-6,-4,-2,4,2,-3,3,-3,3,-2,-1,-2,-1],[4,-4,-4,4,2,2,-2,-2,2,-2,2,-2,1,1,1,1]],f=t=&gt;{let e=[];for(let s=0;s&lt;16;++s){e[s]=0;for(let r=0;r&lt;16;++r)e[s]+=u[s][r]*t[r]}return e},p=(t,e,s)=&gt;{const r=e*e,n=s*s,o=e*e*e,i=s*s*s;return t[0]+t[1]*e+t[2]*r+t[3]*o+t[4]*s+t[5]*s*e+t[6]*s*r+t[7]*s*o+t[8]*n+t[9]*n*e+t[10]*n*r+t[11]*n*o+t[12]*i+t[13]*i*e+t[14]*i*r+t[15]*i*o},y=t=&gt;{let e=[],s=[],r=[];for(let s=0;s&lt;4;++s)e[s]=[],e[s][0]=n(t[0][s],t[1][s],t[2][s],t[3][s]),e[s][1]=[],e[s][1].push(...n(...e[s][0][0])),e[s][1].push(...n(...e[s][0][1])),e[s][2]=[],e[s][2].push(...n(...e[s][1][0])),e[s][2].push(...n(...e[s][1][1])),e[s][2].push(...n(...e[s][1][2])),e[s][2].push(...n(...e[s][1][3]));for(let t=0;t&lt;8;++t){s[t]=[];for(let r=0;r&lt;4;++r)s[t][r]=[],s[t][r][0]=n(e[0][2][t][r],e[1][2][t][r],e[2][2][t][r],e[3][2][t][r]),s[t][r][1]=[],s[t][r][1].push(...n(...s[t][r][0][0])),s[t][r][1].push(...n(...s[t][r][0][1])),s[t][r][2]=[],s[t][r][2].push(...n(...s[t][r][1][0])),s[t][r][2].push(...n(...s[t][r][1][1])),s[t][r][2].push(...n(...s[t][r][1][2])),s[t][r][2].push(...n(...s[t][r][1][3]))}for(let t=0;t&lt;8;++t){r[t]=[];for(let e=0;e&lt;8;++e)r[t][e]=[],r[t][e][0]=s[t][0][2][e],r[t][e][1]=s[t][1][2][e],r[t][e][2]=s[t][2][2][e],r[t][e][3]=s[t][3][2][e]}return r};class x{constructor(t,e){this.x=t||0,this.y=e||0}toString(){return`(x=${this.x}, y=${this.y})`}clone(){return new x(this.x,this.y)}add(t){return new x(this.x+t.x,this.y+t.y)}scale(t){return void 0===t.x?new x(this.x*t,this.y*t):new x(this.x*t.x,this.y*t.y)}distSquared(t){let e=this.x-t.x,s=this.y-t.y;return e*e+s*s}transform(t){let e=this.x*t.a+this.y*t.c+t.e,s=this.x*t.b+this.y*t.d+t.f;return new x(e,s)}}class g{constructor(t,e,s,r,n,o){void 0===t?(this.a=1,this.b=0,this.c=0,this.d=1,this.e=0,this.f=0):(this.a=t,this.b=e,this.c=s,this.d=r,this.e=n,this.f=o)}toString(){return`affine: ${this.a} ${this.c} ${this.e} \n       ${this.b} ${this.d} ${this.f}`}append(t){t instanceof g||console.error(&quot;mesh.js: argument to Affine.append is not affine!&quot;);let e=this.a*t.a+this.c*t.b,s=this.b*t.a+this.d*t.b,r=this.a*t.c+this.c*t.d,n=this.b*t.c+this.d*t.d,o=this.a*t.e+this.c*t.f+this.e,i=this.b*t.e+this.d*t.f+this.f;return new g(e,s,r,n,o,i)}}class w{constructor(t,e){this.nodes=t,this.colors=e}paintCurve(t,e){if(o(this.nodes)&gt;r){const s=n(...this.nodes);let r=[[],[]],o=[[],[]];for(let t=0;t&lt;4;++t)r[0][t]=this.colors[0][t],r[1][t]=(this.colors[0][t]+this.colors[1][t])/2,o[0][t]=r[1][t],o[1][t]=this.colors[1][t];let i=new w(s[0],r),a=new w(s[1],o);i.paintCurve(t,e),a.paintCurve(t,e)}else{let s=Math.round(this.nodes[0].x);if(s&gt;=0&amp;&amp;s&lt;e){let r=4*(~~this.nodes[0].y*e+s);t[r]=Math.round(this.colors[0][0]),t[r+1]=Math.round(this.colors[0][1]),t[r+2]=Math.round(this.colors[0][2]),t[r+3]=Math.round(this.colors[0][3])}}}}class m{constructor(t,e){this.nodes=t,this.colors=e}split(){let t=[[],[],[],[]],e=[[],[],[],[]],s=[[[],[]],[[],[]]],r=[[[],[]],[[],[]]];for(let s=0;s&lt;4;++s){const r=n(this.nodes[0][s],this.nodes[1][s],this.nodes[2][s],this.nodes[3][s]);t[0][s]=r[0][0],t[1][s]=r[0][1],t[2][s]=r[0][2],t[3][s]=r[0][3],e[0][s]=r[1][0],e[1][s]=r[1][1],e[2][s]=r[1][2],e[3][s]=r[1][3]}for(let t=0;t&lt;4;++t)s[0][0][t]=this.colors[0][0][t],s[0][1][t]=this.colors[0][1][t],s[1][0][t]=(this.colors[0][0][t]+this.colors[1][0][t])/2,s[1][1][t]=(this.colors[0][1][t]+this.colors[1][1][t])/2,r[0][0][t]=s[1][0][t],r[0][1][t]=s[1][1][t],r[1][0][t]=this.colors[1][0][t],r[1][1][t]=this.colors[1][1][t];return[new m(t,s),new m(e,r)]}paint(t,e){let s,n=!1;for(let t=0;t&lt;4;++t)if((s=o([this.nodes[0][t],this.nodes[1][t],this.nodes[2][t],this.nodes[3][t]]))&gt;r){n=!0;break}if(n){let s=this.split();s[0].paint(t,e),s[1].paint(t,e)}else{new w([...this.nodes[0]],[...this.colors[0]]).paintCurve(t,e)}}}class b{constructor(t){this.readMesh(t),this.type=t.getAttribute(&quot;type&quot;)||&quot;bilinear&quot;}readMesh(t){let e=[[]],s=[[]],r=Number(t.getAttribute(&quot;x&quot;)),n=Number(t.getAttribute(&quot;y&quot;));e[0][0]=new x(r,n);let o=t.children;for(let t=0,r=o.length;t&lt;r;++t){e[3*t+1]=[],e[3*t+2]=[],e[3*t+3]=[],s[t+1]=[];let r=o[t].children;for(let n=0,o=r.length;n&lt;o;++n){let o=r[n].children;for(let r=0,i=o.length;r&lt;i;++r){let i=r;0!==t&amp;&amp;++i;let h,d=o[r].getAttribute(&quot;path&quot;),c=&quot;l&quot;;null!=d&amp;&amp;(c=(h=d.match(/\s*([lLcC])\s*(.*)/))[1]);let u=l(h[2]);switch(c){case&quot;l&quot;:0===i?(e[3*t][3*n+3]=u[0].add(e[3*t][3*n]),e[3*t][3*n+1]=a(e[3*t][3*n],e[3*t][3*n+3]),e[3*t][3*n+2]=a(e[3*t][3*n+3],e[3*t][3*n])):1===i?(e[3*t+3][3*n+3]=u[0].add(e[3*t][3*n+3]),e[3*t+1][3*n+3]=a(e[3*t][3*n+3],e[3*t+3][3*n+3]),e[3*t+2][3*n+3]=a(e[3*t+3][3*n+3],e[3*t][3*n+3])):2===i?(0===n&amp;&amp;(e[3*t+3][3*n+0]=u[0].add(e[3*t+3][3*n+3])),e[3*t+3][3*n+1]=a(e[3*t+3][3*n],e[3*t+3][3*n+3]),e[3*t+3][3*n+2]=a(e[3*t+3][3*n+3],e[3*t+3][3*n])):(e[3*t+1][3*n]=a(e[3*t][3*n],e[3*t+3][3*n]),e[3*t+2][3*n]=a(e[3*t+3][3*n],e[3*t][3*n]));break;case&quot;L&quot;:0===i?(e[3*t][3*n+3]=u[0],e[3*t][3*n+1]=a(e[3*t][3*n],e[3*t][3*n+3]),e[3*t][3*n+2]=a(e[3*t][3*n+3],e[3*t][3*n])):1===i?(e[3*t+3][3*n+3]=u[0],e[3*t+1][3*n+3]=a(e[3*t][3*n+3],e[3*t+3][3*n+3]),e[3*t+2][3*n+3]=a(e[3*t+3][3*n+3],e[3*t][3*n+3])):2===i?(0===n&amp;&amp;(e[3*t+3][3*n+0]=u[0]),e[3*t+3][3*n+1]=a(e[3*t+3][3*n],e[3*t+3][3*n+3]),e[3*t+3][3*n+2]=a(e[3*t+3][3*n+3],e[3*t+3][3*n])):(e[3*t+1][3*n]=a(e[3*t][3*n],e[3*t+3][3*n]),e[3*t+2][3*n]=a(e[3*t+3][3*n],e[3*t][3*n]));break;case&quot;c&quot;:0===i?(e[3*t][3*n+1]=u[0].add(e[3*t][3*n]),e[3*t][3*n+2]=u[1].add(e[3*t][3*n]),e[3*t][3*n+3]=u[2].add(e[3*t][3*n])):1===i?(e[3*t+1][3*n+3]=u[0].add(e[3*t][3*n+3]),e[3*t+2][3*n+3]=u[1].add(e[3*t][3*n+3]),e[3*t+3][3*n+3]=u[2].add(e[3*t][3*n+3])):2===i?(e[3*t+3][3*n+2]=u[0].add(e[3*t+3][3*n+3]),e[3*t+3][3*n+1]=u[1].add(e[3*t+3][3*n+3]),0===n&amp;&amp;(e[3*t+3][3*n+0]=u[2].add(e[3*t+3][3*n+3]))):(e[3*t+2][3*n]=u[0].add(e[3*t+3][3*n]),e[3*t+1][3*n]=u[1].add(e[3*t+3][3*n]));break;case&quot;C&quot;:0===i?(e[3*t][3*n+1]=u[0],e[3*t][3*n+2]=u[1],e[3*t][3*n+3]=u[2]):1===i?(e[3*t+1][3*n+3]=u[0],e[3*t+2][3*n+3]=u[1],e[3*t+3][3*n+3]=u[2]):2===i?(e[3*t+3][3*n+2]=u[0],e[3*t+3][3*n+1]=u[1],0===n&amp;&amp;(e[3*t+3][3*n+0]=u[2])):(e[3*t+2][3*n]=u[0],e[3*t+1][3*n]=u[1]);break;default:console.error(&quot;mesh.js: &quot;+c+&quot; invalid path type.&quot;)}if(0===t&amp;&amp;0===n||r&gt;0){let e=window.getComputedStyle(o[r]).stopColor.match(/^rgb\s*\(\s*(\d+)\s*,\s*(\d+)\s*,\s*(\d+)\s*\)$/i),a=window.getComputedStyle(o[r]).stopOpacity,h=255;a&amp;&amp;(h=Math.floor(255*a)),e&amp;&amp;(0===i?(s[t][n]=[],s[t][n][0]=Math.floor(e[1]),s[t][n][1]=Math.floor(e[2]),s[t][n][2]=Math.floor(e[3]),s[t][n][3]=h):1===i?(s[t][n+1]=[],s[t][n+1][0]=Math.floor(e[1]),s[t][n+1][1]=Math.floor(e[2]),s[t][n+1][2]=Math.floor(e[3]),s[t][n+1][3]=h):2===i?(s[t+1][n+1]=[],s[t+1][n+1][0]=Math.floor(e[1]),s[t+1][n+1][1]=Math.floor(e[2]),s[t+1][n+1][2]=Math.floor(e[3]),s[t+1][n+1][3]=h):3===i&amp;&amp;(s[t+1][n]=[],s[t+1][n][0]=Math.floor(e[1]),s[t+1][n][1]=Math.floor(e[2]),s[t+1][n][2]=Math.floor(e[3]),s[t+1][n][3]=h))}}e[3*t+1][3*n+1]=new x,e[3*t+1][3*n+2]=new x,e[3*t+2][3*n+1]=new x,e[3*t+2][3*n+2]=new x,e[3*t+1][3*n+1].x=(-4*e[3*t][3*n].x+6*(e[3*t][3*n+1].x+e[3*t+1][3*n].x)+-2*(e[3*t][3*n+3].x+e[3*t+3][3*n].x)+3*(e[3*t+3][3*n+1].x+e[3*t+1][3*n+3].x)+-1*e[3*t+3][3*n+3].x)/9,e[3*t+1][3*n+2].x=(-4*e[3*t][3*n+3].x+6*(e[3*t][3*n+2].x+e[3*t+1][3*n+3].x)+-2*(e[3*t][3*n].x+e[3*t+3][3*n+3].x)+3*(e[3*t+3][3*n+2].x+e[3*t+1][3*n].x)+-1*e[3*t+3][3*n].x)/9,e[3*t+2][3*n+1].x=(-4*e[3*t+3][3*n].x+6*(e[3*t+3][3*n+1].x+e[3*t+2][3*n].x)+-2*(e[3*t+3][3*n+3].x+e[3*t][3*n].x)+3*(e[3*t][3*n+1].x+e[3*t+2][3*n+3].x)+-1*e[3*t][3*n+3].x)/9,e[3*t+2][3*n+2].x=(-4*e[3*t+3][3*n+3].x+6*(e[3*t+3][3*n+2].x+e[3*t+2][3*n+3].x)+-2*(e[3*t+3][3*n].x+e[3*t][3*n+3].x)+3*(e[3*t][3*n+2].x+e[3*t+2][3*n].x)+-1*e[3*t][3*n].x)/9,e[3*t+1][3*n+1].y=(-4*e[3*t][3*n].y+6*(e[3*t][3*n+1].y+e[3*t+1][3*n].y)+-2*(e[3*t][3*n+3].y+e[3*t+3][3*n].y)+3*(e[3*t+3][3*n+1].y+e[3*t+1][3*n+3].y)+-1*e[3*t+3][3*n+3].y)/9,e[3*t+1][3*n+2].y=(-4*e[3*t][3*n+3].y+6*(e[3*t][3*n+2].y+e[3*t+1][3*n+3].y)+-2*(e[3*t][3*n].y+e[3*t+3][3*n+3].y)+3*(e[3*t+3][3*n+2].y+e[3*t+1][3*n].y)+-1*e[3*t+3][3*n].y)/9,e[3*t+2][3*n+1].y=(-4*e[3*t+3][3*n].y+6*(e[3*t+3][3*n+1].y+e[3*t+2][3*n].y)+-2*(e[3*t+3][3*n+3].y+e[3*t][3*n].y)+3*(e[3*t][3*n+1].y+e[3*t+2][3*n+3].y)+-1*e[3*t][3*n+3].y)/9,e[3*t+2][3*n+2].y=(-4*e[3*t+3][3*n+3].y+6*(e[3*t+3][3*n+2].y+e[3*t+2][3*n+3].y)+-2*(e[3*t+3][3*n].y+e[3*t][3*n+3].y)+3*(e[3*t][3*n+2].y+e[3*t+2][3*n].y)+-1*e[3*t][3*n].y)/9}}this.nodes=e,this.colors=s}paintMesh(t,e){let s=(this.nodes.length-1)/3,r=(this.nodes[0].length-1)/3;if(&quot;bilinear&quot;===this.type||s&lt;2||r&lt;2){let n;for(let o=0;o&lt;s;++o)for(let s=0;s&lt;r;++s){let r=[];for(let t=3*o,e=3*o+4;t&lt;e;++t)r.push(this.nodes[t].slice(3*s,3*s+4));let i=[];i.push(this.colors[o].slice(s,s+2)),i.push(this.colors[o+1].slice(s,s+2)),(n=new m(r,i)).paint(t,e)}}else{let n,o,a,h,l,d,u;const x=s,g=r;s++,r++;let w=new Array(s);for(let t=0;t&lt;s;++t){w[t]=new Array(r);for(let e=0;e&lt;r;++e)w[t][e]=[],w[t][e][0]=this.nodes[3*t][3*e],w[t][e][1]=this.colors[t][e]}for(let t=0;t&lt;s;++t)for(let e=0;e&lt;r;++e)0!==t&amp;&amp;t!==x&amp;&amp;(n=i(w[t-1][e][0],w[t][e][0]),o=i(w[t+1][e][0],w[t][e][0]),w[t][e][2]=c(w[t-1][e][1],w[t][e][1],w[t+1][e][1],n,o)),0!==e&amp;&amp;e!==g&amp;&amp;(n=i(w[t][e-1][0],w[t][e][0]),o=i(w[t][e+1][0],w[t][e][0]),w[t][e][3]=c(w[t][e-1][1],w[t][e][1],w[t][e+1][1],n,o));for(let t=0;t&lt;r;++t){w[0][t][2]=[],w[x][t][2]=[];for(let e=0;e&lt;4;++e)n=i(w[1][t][0],w[0][t][0]),o=i(w[x][t][0],w[x-1][t][0]),w[0][t][2][e]=n&gt;0?2*(w[1][t][1][e]-w[0][t][1][e])/n-w[1][t][2][e]:0,w[x][t][2][e]=o&gt;0?2*(w[x][t][1][e]-w[x-1][t][1][e])/o-w[x-1][t][2][e]:0}for(let t=0;t&lt;s;++t){w[t][0][3]=[],w[t][g][3]=[];for(let e=0;e&lt;4;++e)n=i(w[t][1][0],w[t][0][0]),o=i(w[t][g][0],w[t][g-1][0]),w[t][0][3][e]=n&gt;0?2*(w[t][1][1][e]-w[t][0][1][e])/n-w[t][1][3][e]:0,w[t][g][3][e]=o&gt;0?2*(w[t][g][1][e]-w[t][g-1][1][e])/o-w[t][g-1][3][e]:0}for(let s=0;s&lt;x;++s)for(let r=0;r&lt;g;++r){let n=i(w[s][r][0],w[s+1][r][0]),o=i(w[s][r+1][0],w[s+1][r+1][0]),c=i(w[s][r][0],w[s][r+1][0]),x=i(w[s+1][r][0],w[s+1][r+1][0]),g=[[],[],[],[]];for(let t=0;t&lt;4;++t){(d=[])[0]=w[s][r][1][t],d[1]=w[s+1][r][1][t],d[2]=w[s][r+1][1][t],d[3]=w[s+1][r+1][1][t],d[4]=w[s][r][2][t]*n,d[5]=w[s+1][r][2][t]*n,d[6]=w[s][r+1][2][t]*o,d[7]=w[s+1][r+1][2][t]*o,d[8]=w[s][r][3][t]*c,d[9]=w[s+1][r][3][t]*x,d[10]=w[s][r+1][3][t]*c,d[11]=w[s+1][r+1][3][t]*x,d[12]=0,d[13]=0,d[14]=0,d[15]=0,u=f(d);for(let e=0;e&lt;9;++e){g[t][e]=[];for(let s=0;s&lt;9;++s)g[t][e][s]=p(u,e/8,s/8),g[t][e][s]&gt;255?g[t][e][s]=255:g[t][e][s]&lt;0&amp;&amp;(g[t][e][s]=0)}}h=[];for(let t=3*s,e=3*s+4;t&lt;e;++t)h.push(this.nodes[t].slice(3*r,3*r+4));l=y(h);for(let s=0;s&lt;8;++s)for(let r=0;r&lt;8;++r)(a=new m(l[s][r],[[[g[0][s][r],g[1][s][r],g[2][s][r],g[3][s][r]],[g[0][s][r+1],g[1][s][r+1],g[2][s][r+1],g[3][s][r+1]]],[[g[0][s+1][r],g[1][s+1][r],g[2][s+1][r],g[3][s+1][r]],[g[0][s+1][r+1],g[1][s+1][r+1],g[2][s+1][r+1],g[3][s+1][r+1]]]])).paint(t,e)}}}transform(t){if(t instanceof x)for(let e=0,s=this.nodes.length;e&lt;s;++e)for(let s=0,r=this.nodes[0].length;s&lt;r;++s)this.nodes[e][s]=this.nodes[e][s].add(t);else if(t instanceof g)for(let e=0,s=this.nodes.length;e&lt;s;++e)for(let s=0,r=this.nodes[0].length;s&lt;r;++s)this.nodes[e][s]=this.nodes[e][s].transform(t)}scale(t){for(let e=0,s=this.nodes.length;e&lt;s;++e)for(let s=0,r=this.nodes[0].length;s&lt;r;++s)this.nodes[e][s]=this.nodes[e][s].scale(t)}}document.querySelectorAll(&quot;rect,circle,ellipse,path,text&quot;).forEach((r,n)=&gt;{let o=r.getAttribute(&quot;id&quot;);o||(o=&quot;patchjs_shape&quot;+n,r.setAttribute(&quot;id&quot;,o));const i=r.style.fill.match(/^url\(\s*&quot;?\s*#([^\s&quot;]+)&quot;?\s*\)/),a=r.style.stroke.match(/^url\(\s*&quot;?\s*#([^\s&quot;]+)&quot;?\s*\)/);if(i&amp;&amp;i[1]){const a=document.getElementById(i[1]);if(a&amp;&amp;&quot;meshgradient&quot;===a.nodeName){const i=r.getBBox();let l=document.createElementNS(s,&quot;canvas&quot;);d(l,{width:i.width,height:i.height});const c=l.getContext(&quot;2d&quot;);let u=c.createImageData(i.width,i.height);const f=new b(a);&quot;objectBoundingBox&quot;===a.getAttribute(&quot;gradientUnits&quot;)&amp;&amp;f.scale(new x(i.width,i.height));const p=a.getAttribute(&quot;gradientTransform&quot;);null!=p&amp;&amp;f.transform(h(p)),&quot;userSpaceOnUse&quot;===a.getAttribute(&quot;gradientUnits&quot;)&amp;&amp;f.transform(new x(-i.x,-i.y)),f.paintMesh(u.data,l.width),c.putImageData(u,0,0);const y=document.createElementNS(t,&quot;image&quot;);d(y,{width:i.width,height:i.height,x:i.x,y:i.y});let g=l.toDataURL();y.setAttributeNS(e,&quot;xlink:href&quot;,g),r.parentNode.insertBefore(y,r),r.style.fill=&quot;none&quot;;const w=document.createElementNS(t,&quot;use&quot;);w.setAttributeNS(e,&quot;xlink:href&quot;,&quot;#&quot;+o);const m=&quot;patchjs_clip&quot;+n,M=document.createElementNS(t,&quot;clipPath&quot;);M.setAttribute(&quot;id&quot;,m),M.appendChild(w),r.parentElement.insertBefore(M,r),y.setAttribute(&quot;clip-path&quot;,&quot;url(#&quot;+m+&quot;)&quot;),u=null,l=null,g=null}}if(a&amp;&amp;a[1]){const o=document.getElementById(a[1]);if(o&amp;&amp;&quot;meshgradient&quot;===o.nodeName){const i=parseFloat(r.style.strokeWidth.slice(0,-2))*(parseFloat(r.style.strokeMiterlimit)||parseFloat(r.getAttribute(&quot;stroke-miterlimit&quot;))||1),a=r.getBBox(),l=Math.trunc(a.width+i),c=Math.trunc(a.height+i),u=Math.trunc(a.x-i/2),f=Math.trunc(a.y-i/2);let p=document.createElementNS(s,&quot;canvas&quot;);d(p,{width:l,height:c});const y=p.getContext(&quot;2d&quot;);let g=y.createImageData(l,c);const w=new b(o);&quot;objectBoundingBox&quot;===o.getAttribute(&quot;gradientUnits&quot;)&amp;&amp;w.scale(new x(l,c));const m=o.getAttribute(&quot;gradientTransform&quot;);null!=m&amp;&amp;w.transform(h(m)),&quot;userSpaceOnUse&quot;===o.getAttribute(&quot;gradientUnits&quot;)&amp;&amp;w.transform(new x(-u,-f)),w.paintMesh(g.data,p.width),y.putImageData(g,0,0);const M=document.createElementNS(t,&quot;image&quot;);d(M,{width:l,height:c,x:0,y:0});let S=p.toDataURL();M.setAttributeNS(e,&quot;xlink:href&quot;,S);const k=&quot;pattern_clip&quot;+n,A=document.createElementNS(t,&quot;pattern&quot;);d(A,{id:k,patternUnits:&quot;userSpaceOnUse&quot;,width:l,height:c,x:u,y:f}),A.appendChild(M),o.parentNode.appendChild(A),r.style.stroke=&quot;url(#&quot;+k+&quot;)&quot;,g=null,p=null,S=null}}})}();
</script>
</svg>
