<?xml version="1.0" encoding="UTF-8" standalone="no"?>
<!-- Created with Inkscape (http://www.inkscape.org/) -->

<svg
   width="217mm"
   height="44mm"
   viewBox="0 0 217 44"
   version="1.1"
   id="svg485"
   inkscape:version="1.1.1 (3bf5ae0d25, 2021-09-20)"
   sodipodi:docname="drawing-011.svg"
   xmlns:inkscape="http://www.inkscape.org/namespaces/inkscape"
   xmlns:sodipodi="http://sodipodi.sourceforge.net/DTD/sodipodi-0.dtd"
   xmlns="http://www.w3.org/2000/svg"
   xmlns:svg="http://www.w3.org/2000/svg">
  <sodipodi:namedview
     id="namedview487"
     pagecolor="#ffffff"
     bordercolor="#666666"
     borderopacity="1.0"
     inkscape:pageshadow="2"
     inkscape:pageopacity="0.0"
     inkscape:pagecheckerboard="0"
     inkscape:document-units="mm"
     showgrid="false"
     width="217mm"
     units="mm"
     showborder="true"
     inkscape:snap-object-midpoints="false"
     inkscape:snap-others="false"
     inkscape:zoom="0.49887767"
     inkscape:cx="403.90663"
     inkscape:cy="307.69066"
     inkscape:window-width="1366"
     inkscape:window-height="745"
     inkscape:window-x="-8"
     inkscape:window-y="-8"
     inkscape:window-maximized="1"
     inkscape:current-layer="layer1" />
  <defs
     id="defs482" />
  <g
     inkscape:label="Layer 1"
     inkscape:groupmode="layer"
     id="layer1">
    <path
       id="path80505"
       style="opacity:0.7;fill:#ffffff;stroke:#ffffff;stroke-width:0.264583"
       d="M 46.13155,22.00625 A 22.540176,22.009821 0 0 1 23.591373,44.016071 22.540176,22.009821 0 0 1 1.0511971,22.00625 22.540176,22.009821 0 0 1 23.591373,-0.00357056 22.540176,22.009821 0 0 1 46.13155,22.00625 Z" />
    <text
       xml:space="preserve"
       style="font-style:normal;font-variant:normal;font-weight:normal;font-stretch:normal;font-size:18.423px;line-height:1.25;font-family:'Berlin Sans FB Demi';-inkscape-font-specification:'Berlin Sans FB Demi';white-space:pre;inline-size:97.1891;stroke-width:0.191906"
       x="52.578217"
       y="29.457636"
       id="text1569"
       transform="matrix(1.2793343,0,0,1.4858142,-3.1304047,-21.353075)" />
    <text
       xml:space="preserve"
       style="font-size:22.5778px;line-height:1.25;font-family:'Cooper Black';-inkscape-font-specification:'Cooper Black, ';stroke-width:0.264583"
       x="169.71428"
       y="31.82143"
       id="text22529"><tspan
         sodipodi:role="line"
         id="tspan22527"
         style="stroke-width:0.264583"
         x="169.71428"
         y="31.82143" /></text>
    <text
       xml:space="preserve"
       style="font-size:19.7556px;line-height:1.25;font-family:'Cooper Black';-inkscape-font-specification:'Cooper Black, ';stroke-width:0.264583"
       x="67.355354"
       y="40.837502"
       id="text30339"><tspan
         sodipodi:role="line"
         id="tspan30337"
         style="font-style:normal;font-variant:normal;font-weight:normal;font-stretch:normal;font-size:19.7556px;font-family:'Berlin Sans FB Demi';-inkscape-font-specification:'Berlin Sans FB Demi';stroke-width:0.264583"
         x="67.355354"
         y="40.837502" /></text>
    <text
       xml:space="preserve"
       style="font-style:normal;font-variant:normal;font-weight:normal;font-stretch:normal;font-size:22.5778px;line-height:1.25;font-family:'Berlin Sans FB Demi';-inkscape-font-specification:'Berlin Sans FB Demi';stroke-width:0.264583"
       x="50.388687"
       y="0.53035718"
       id="text51749"><tspan
         sodipodi:role="line"
         id="tspan51747"
         style="font-style:normal;font-variant:normal;font-weight:normal;font-stretch:normal;font-family:'Berlin Sans FB Demi';-inkscape-font-specification:'Berlin Sans FB Demi';stroke-width:0.264583"
         x="50.388687"
         y="0.53035718" /></text>
    <path
       id="path76388"
       style="fill:#ffa500;fill-rule:evenodd;stroke:#ffffff;stroke-width:0.264583"
       d="m 21.972714,22.040638 c 0.541295,0.998193 -1.063494,1.230351 -1.640574,0.909807 -1.563851,-0.868655 -1.207965,-3.113879 -0.158763,-4.227933 1.876778,-1.99278 5.072069,-1.348619 6.721056,0.588704 2.419955,2.843098 1.471391,7.175012 -1.323048,9.365673 -3.724545,2.919806 -9.129114,1.633085 -11.801539,-2.087214 -3.362975,-4.681616 -1.761428,-11.294428 2.804859,-14.503414 5.530385,-3.8865087 13.211051,-1.931278 16.882021,3.585725 4.326115,6.501599 2.05921,15.427376 -4.286667,19.641159 -7.326566,4.86497 -17.301115,2.2343 -21.9625056,-5.084241 C 1.9109845,21.913111 4.8474227,10.663182 12.976032,5.4500143 c 9.119074,-5.84838696 21.394884,-2.539535 27.042989,6.5827427 6.270468,10.127462 2.66262,23.706778 -7.250292,29.916628" />
    <g
       aria-label="NIGERIA"
       transform="scale(1.2671227,0.78918954)"
       id="text89412"
       style="font-size:41.0011px;line-height:1.25;font-family:'Tw Cen MT Condensed Extra Bold';-inkscape-font-specification:'Tw Cen MT Condensed Extra Bold, ';stroke-width:0.264583;fill:#ffffff">
      <path
         d="m 39.911164,2.0283404 h 6.12614 L 53.745031,17.443793 53.52481,14.560903 V 2.0283404 h 6.06608 V 28.755131 h -6.226241 l -7.547565,-15.175212 0.16016,3.323332 v 11.85188 h -6.06608 z"
         id="path100582"
         style="fill:#ffffff" />
      <path
         d="m 65.55687,2.0283404 h 6.066081 V 28.755131 H 65.55687 Z"
         id="path100584"
         style="fill:#ffffff" />
      <path
         d="m 95.927312,13.78012 v 4.484495 q 0,5.205218 -2.522529,8.188208 -2.502508,2.96297 -6.866883,2.96297 -4.884897,0 -7.547566,-3.663672 -2.662669,-3.683693 -2.662669,-10.490516 0,-6.8668831 2.642649,-10.4104351 2.662669,-3.563572 7.767787,-3.563572 5.725739,0 8.288308,6.1061206 l -5.7858,2.3823881 q -0.720722,-1.2812843 -1.341344,-1.8618663 -0.620623,-0.600602 -1.701706,-0.600602 -1.841846,0 -2.622629,1.9419465 -0.760763,1.9219262 -0.760763,6.2462612 0,4.024034 0.860863,5.92594 0.880883,1.881886 2.78279,1.881886 3.04305,0 3.14315,-4.344354 H 86.778141 V 13.78012 Z"
         id="path100586"
         style="fill:#ffffff" />
      <path
         d="m 100.39179,2.0283404 h 12.2723 v 5.6856992 h -6.20622 v 4.9249364 h 5.3854 v 5.545559 h -5.3854 v 4.864876 h 6.24626 v 5.70572 h -12.31234 z"
         id="path100588"
         style="fill:#ffffff" />
      <path
         d="m 117.48892,2.0283404 h 7.06709 q 4.28429,0 6.76678,2.2022074 2.48249,2.2022075 2.48249,5.9860002 0,1.941947 -0.94095,3.763773 -0.94094,1.801806 -2.74274,2.722729 l 4.84485,12.052081 h -6.40642 L 123.6551,16.58293 h -0.1001 v 12.172201 h -6.06608 z m 6.06608,5.1651775 v 6.3463611 q 4.02404,-0.08008 4.02404,-2.822829 0,-1.8618665 -0.94095,-2.6626692 -0.92092,-0.8008027 -3.08309,-0.8608629 z"
         id="path100590"
         style="fill:#ffffff" />
      <path
         d="m 138.6101,2.0283404 h 6.06608 V 28.755131 h -6.06608 z"
         id="path100592"
         style="fill:#ffffff" />
      <path
         d="m 169.30086,28.755131 h -6.30632 l -1.02102,-4.464475 h -6.40642 l -1.06107,4.464475 h -6.1862 l 7.08711,-26.7267906 h 6.80682 z m -8.48851,-9.269292 q -1.36136,-5.96598 -2.04204,-11.351378 h -0.0801 q -0.72073,5.545559 -2.02203,11.351378 z"
         id="path100594"
         style="fill:#ffffff" />
    </g>
    <g
       aria-label="POSTAL CODE"
       transform="scale(1.2318578,0.811782)"
       id="text89412-4"
       style="font-size:27.546px;line-height:1.25;font-family:'Tw Cen MT Condensed Extra Bold';-inkscape-font-specification:'Tw Cen MT Condensed Extra Bold, ';stroke-width:0.264583;fill:#ffffff">
      <path
         d="m 41.259716,34.225119 h 5.043823 q 2.663139,0 4.277162,1.519872 1.614024,1.519872 1.614024,4.008158 0,2.622788 -1.640924,4.11576 -1.627474,1.479521 -4.519266,1.479521 h -0.69941 v 6.832699 h -4.075409 z m 4.075409,3.44325 v 4.236811 q 1.37192,-0.0269 2.017529,-0.524557 0.65906,-0.497657 0.65906,-1.573673 0,-1.156717 -0.632159,-1.627474 -0.632159,-0.484207 -2.04443,-0.511107 z"
         id="path100597"
         style="fill:#ffffff" />
      <path
         d="m 61.125654,52.624986 q -3.254947,0 -4.963122,-2.488286 -1.708175,-2.501736 -1.708175,-7.209305 0,-4.344413 1.708175,-6.765448 1.721625,-2.434485 4.78827,-2.434485 3.268397,0 4.990022,2.434485 1.735075,2.434485 1.735075,6.953751 0,4.519266 -1.708175,7.021002 -1.694724,2.488286 -4.84207,2.488286 z M 60.977702,37.802871 q -2.205832,0 -2.205832,5.178325 0,3.335648 0.551458,4.452015 0.564908,1.116366 1.627474,1.116366 1.143266,0 1.748525,-1.116366 0.618709,-1.116367 0.618709,-4.371314 0,-5.259026 -2.340334,-5.259026 z"
         id="path100599"
         style="fill:#ffffff" />
      <path
         d="m 70.702194,51.844875 v -4.183011 q 1.936828,1.129816 3.254947,1.129816 0.766661,0 1.210518,-0.416956 0.443856,-0.430406 0.443856,-1.129816 0,-0.538008 -0.363155,-1.008765 -0.349705,-0.470757 -1.223968,-1.143266 -2.11168,-1.614024 -3.066644,-2.999394 -0.941514,-1.39882 -0.941514,-3.106995 0,-2.326884 1.466071,-3.792955 1.466072,-1.466071 3.792955,-1.466071 1.721625,0 3.41635,0.739761 v 4.021608 q -1.815776,-0.995315 -2.945593,-0.995315 -0.753211,0 -1.197067,0.376606 -0.430406,0.363155 -0.430406,1.008765 0,1.129816 2.030979,2.542086 1.210518,0.833912 2.447936,2.353785 1.250868,1.506421 1.250868,3.49705 0,2.326884 -1.627474,3.860206 -1.627473,1.519872 -4.12921,1.519872 -1.708174,0 -3.389449,-0.807011 z"
         id="path100601"
         style="fill:#ffffff" />
      <path
         d="m 81.421998,34.225119 h 9.724491 v 4.10231 h -2.811091 v 13.8537 h -4.12921 v -13.8537 h -2.78419 z"
         id="path100603"
         style="fill:#ffffff" />
      <path
         d="m 105.73995,52.181129 h -4.23681 l -0.68596,-2.999393 h -4.304064 l -0.712861,2.999393 h -4.15611 l 4.761369,-17.95601 h 4.573066 z m -5.70288,-6.22744 q -0.914617,-4.008158 -1.371923,-7.62626 h -0.0538 q -0.484207,3.725704 -1.35847,7.62626 z"
         id="path100605"
         style="fill:#ffffff" />
      <path
         d="m 107.79783,34.225119 h 4.07541 v 13.7999 h 3.22805 v 4.15611 h -7.30346 z"
         id="path100607"
         style="fill:#ffffff" />
      <path
         d="m 134.03916,47.944318 v 4.263712 q -1.29122,0.416956 -2.31343,0.416956 -3.5374,0 -5.74323,-2.649689 -2.19239,-2.663138 -2.19239,-6.994101 0,-4.021608 2.21929,-6.630946 2.21928,-2.622788 5.60873,-2.622788 1.31812,0 2.42103,0.349705 v 4.277162 q -1.17016,-0.390056 -2.20583,-0.390056 -1.58712,0 -2.63624,1.452621 -1.04911,1.452621 -1.04911,3.698804 0,2.421035 1.04911,3.833306 1.06257,1.39882 2.82454,1.39882 0.86082,0 2.01753,-0.403506 z"
         id="path100609"
         style="fill:#ffffff" />
      <path
         d="m 142.52624,52.624986 q -3.25495,0 -4.96312,-2.488286 -1.70818,-2.501736 -1.70818,-7.209305 0,-4.344413 1.70818,-6.765448 1.72162,-2.434485 4.78827,-2.434485 3.26839,0 4.99002,2.434485 1.73507,2.434485 1.73507,6.953751 0,4.519266 -1.70817,7.021002 -1.69473,2.488286 -4.84207,2.488286 z m -0.14795,-14.822115 q -2.20584,0 -2.20584,5.178325 0,3.335648 0.55146,4.452015 0.56491,1.116366 1.62748,1.116366 1.14326,0 1.74852,-1.116366 0.61871,-1.116367 0.61871,-4.371314 0,-5.259026 -2.34033,-5.259026 z"
         id="path100611"
         style="fill:#ffffff" />
      <path
         d="m 152.10277,34.225119 h 3.80641 q 3.95435,0 6.01223,2.259633 2.05788,2.246182 2.05788,6.577145 0,3.281848 -1.02221,5.299377 -1.00877,2.017529 -2.83799,2.918692 -1.81578,0.901163 -4.02161,0.901163 h -3.99471 z m 4.07541,3.819855 v 10.30285 q 1.85613,-0.161402 2.62279,-1.304669 0.76666,-1.156717 0.76666,-3.792955 0,-1.560223 -0.269,-2.636238 -0.26901,-1.089466 -0.80702,-1.667825 -0.52455,-0.591808 -1.03566,-0.72631 -0.49766,-0.134502 -1.27777,-0.174853 z"
         id="path100613"
         style="fill:#ffffff" />
      <path
         d="m 166.72314,34.225119 h 8.24497 v 3.819855 h -4.16956 v 3.308748 h 3.6181 v 3.725704 h -3.6181 v 3.268398 h 4.19646 v 3.833305 h -8.27187 z"
         id="path100615"
         style="fill:#ffffff" />
    </g>
  </g>
</svg>
