<?xml version="1.0" encoding="UTF-8" standalone="no"?>
<!-- Created with Inkscape (http://www.inkscape.org/) -->

<svg
   width="220mm"
   height="44mm"
   viewBox="0 0 220 44"
   version="1.1"
   id="svg485"
   inkscape:version="1.1.1 (3bf5ae0d25, 2021-09-20)"
   sodipodi:docname="drawing-0111.svg"
   xmlns:inkscape="http://www.inkscape.org/namespaces/inkscape"
   xmlns:sodipodi="http://sodipodi.sourceforge.net/DTD/sodipodi-0.dtd"
   xmlns="http://www.w3.org/2000/svg"
   xmlns:svg="http://www.w3.org/2000/svg">
  <sodipodi:namedview
     id="namedview487"
     pagecolor="#ffffff"
     bordercolor="#666666"
     borderopacity="1.0"
     inkscape:pageshadow="2"
     inkscape:pageopacity="0.0"
     inkscape:pagecheckerboard="0"
     inkscape:document-units="mm"
     showgrid="false"
     width="220mm"
     units="mm"
     showborder="true"
     inkscape:snap-object-midpoints="false"
     inkscape:snap-others="false"
     inkscape:zoom="0.49887767"
     inkscape:cx="584.31158"
     inkscape:cy="307.69066"
     inkscape:window-width="1366"
     inkscape:window-height="745"
     inkscape:window-x="-8"
     inkscape:window-y="-8"
     inkscape:window-maximized="1"
     inkscape:current-layer="layer1" />
  <defs
     id="defs482" />
  <g
     inkscape:label="Layer 1"
     inkscape:groupmode="layer"
     id="layer1">
    <path
       id="rect20827"
       style="opacity:0.7;fill:#0b8474;stroke-width:0.264583"
       d="M 0.53511888,0.53035718 H 50.388688 V 44.549999 H 0.53511888 Z" />
    <text
       xml:space="preserve"
       style="font-style:normal;font-variant:normal;font-weight:normal;font-stretch:normal;font-size:18.423px;line-height:1.25;font-family:'Berlin Sans FB Demi';-inkscape-font-specification:'Berlin Sans FB Demi';white-space:pre;inline-size:97.1891;stroke-width:0.191906"
       x="52.578217"
       y="29.457636"
       id="text1569"
       transform="matrix(1.2793343,0,0,1.4858142,-3.1304047,-21.353075)" />
    <text
       xml:space="preserve"
       style="font-size:22.5778px;line-height:1.25;font-family:'Cooper Black';-inkscape-font-specification:'Cooper Black, ';stroke-width:0.264583"
       x="169.71428"
       y="31.82143"
       id="text22529"><tspan
         sodipodi:role="line"
         id="tspan22527"
         style="stroke-width:0.264583"
         x="169.71428"
         y="31.82143" /></text>
    <text
       xml:space="preserve"
       style="font-size:19.7556px;line-height:1.25;font-family:'Cooper Black';-inkscape-font-specification:'Cooper Black, ';stroke-width:0.264583"
       x="67.355354"
       y="40.837502"
       id="text30339"><tspan
         sodipodi:role="line"
         id="tspan30337"
         style="font-style:normal;font-variant:normal;font-weight:normal;font-stretch:normal;font-size:19.7556px;font-family:'Berlin Sans FB Demi';-inkscape-font-specification:'Berlin Sans FB Demi';stroke-width:0.264583"
         x="67.355354"
         y="40.837502" /></text>
    <text
       xml:space="preserve"
       style="font-style:normal;font-variant:normal;font-weight:normal;font-stretch:normal;font-size:22.5778px;line-height:1.25;font-family:'Berlin Sans FB Demi';-inkscape-font-specification:'Berlin Sans FB Demi';stroke-width:0.264583"
       x="50.388687"
       y="0.53035718"
       id="text51749"><tspan
         sodipodi:role="line"
         id="tspan51747"
         style="font-style:normal;font-variant:normal;font-weight:normal;font-stretch:normal;font-family:'Berlin Sans FB Demi';-inkscape-font-specification:'Berlin Sans FB Demi';stroke-width:0.264583"
         x="50.388687"
         y="0.53035718" /></text>
    <g
       aria-label="N I G E R I A"
       id="text53623"
       style="font-size:25.4px;line-height:1.25;font-family:'Cooper Black';-inkscape-font-specification:'Cooper Black, ';stroke-width:0.264583;fill:#ffffff">
      <path
         d="m 70.239517,2.6071974 q 0,1.4138672 -0.124023,4.2540039 -0.111622,2.8277343 -0.111622,4.2540037 v 8.173145 q 0,0.334863 -0.359668,0.334863 -0.297656,0 -0.905371,0.02481 -0.595312,0.0248 -0.892968,0.0248 -0.322461,0 -0.967383,-0.04961 -0.644922,-0.04961 -0.967383,-0.04961 -0.223242,0 -0.533301,-0.409277 -0.892968,-1.203027 -4.018359,-5.333008 -0.855762,-1.153418 -2.604492,-3.398242 -0.04961,-0.07441 -0.186035,-0.148828 -0.09922,0.08682 -0.09922,0.272852 0,1.438672 0.07441,4.316015 0.08682,2.877344 0.08682,4.316016 0,0.434082 -0.334863,0.434082 h -4.291211 q -0.359668,0 -0.359668,-0.384473 0,-1.339453 0.124024,-4.043164 0.136425,-2.703711 0.136425,-4.055566 0,-1.4262697 -0.124023,-4.2664064 -0.111621,-2.8401366 -0.111621,-4.2540038 0,-0.2728516 0.483691,-0.2728516 0.719336,0 1.773535,-0.099219 0.248047,-0.024805 0.979786,-0.1612305 0.620117,-0.1116211 0.979785,-0.1116211 0.148828,0 0.458886,0.4216797 l 4.626075,6.3375976 q 0.620117,0.8557617 1.872753,2.5052738 0.310059,0.384472 0.533301,0.384472 0.161231,0 0.161231,-0.967383 0,-1.3022457 -0.148828,-3.9191401 -0.136426,-2.6168945 -0.136426,-3.931543 0,-0.4588867 0.260449,-0.4588867 0.744141,0 2.244824,-0.062012 1.500684,-0.062012 2.244824,-0.062012 0.235645,0 0.235645,0.3844726 z"
         style="font-family:'Berlin Sans FB Demi';-inkscape-font-specification:'Berlin Sans FB Demi';fill:#ffffff"
         id="path80142" />
      <path
         d="m 83.931704,10.457881 q 0,1.463476 0.07441,4.402832 0.07441,2.939355 0.07441,4.402832 0,0.248047 -0.111621,0.310058 -0.02481,0.0124 -0.322461,0.04961 -0.806152,0.09922 -2.158008,0.09922 -1.810742,0 -2.306836,-0.09922 -0.359668,-0.07441 -0.359668,-0.384473 0,0.198438 0.111621,-2.182812 0.223243,-5.022949 0.223243,-6.598047 0,-1.3270508 -0.08682,-3.9811524 -0.08682,-2.6541015 -0.08682,-3.9811522 0,-0.2728516 0.285254,-0.2728516 0.384472,0 1.153418,0.037207 0.781347,0.037207 1.16582,0.037207 0.384473,0 1.128613,-0.037207 0.756543,-0.037207 1.141016,-0.037207 0.359668,0 0.359668,0.2728516 0,1.3270507 -0.148828,3.9811522 -0.136426,2.6541016 -0.136426,3.9811524 z"
         style="font-family:'Berlin Sans FB Demi';-inkscape-font-specification:'Berlin Sans FB Demi';fill:#ffffff"
         id="path80144" />
      <path
         d="m 109.13326,19.226338 q 0.0248,0.334863 -0.34726,0.334863 -0.23565,0 -1.36426,-0.272851 -1.11621,-0.272852 -1.37666,-0.372071 -2.59209,1.016992 -4.97334,1.016992 -3.832323,0 -6.287987,-2.554882 -2.430859,-2.517676 -2.430859,-6.362403 0,-3.9315425 2.356445,-6.5236323 2.430859,-2.6789062 6.312791,-2.6789062 1.88516,0 3.54707,0.7193359 1.79834,0.79375 2.82774,2.2324218 0.21084,0.2976563 0.21084,0.4216797 0,0.396875 -1.11621,1.7859375 -1.10381,1.3766601 -1.42627,1.3766601 -0.0744,0 -0.57051,-0.5084961 -0.60772,-0.6077148 -1.24024,-0.9425781 -0.94257,-0.5084961 -2.08359,-0.5084961 -1.860351,0 -2.951758,1.3890625 -1.016992,1.2774414 -1.016992,3.1874023 0,2.021582 1.054199,3.199805 1.091407,1.215429 3.088181,1.215429 1.26504,0 2.82774,-0.632519 -0.0372,-0.409278 -0.22324,-2.083594 -0.16124,-1.289844 -0.16124,-2.083594 0,-0.235644 0.16124,-0.285254 0.062,-0.0248 0.19843,-0.0248 0.35967,0 1.07901,0.07441 0.73173,0.06201 1.10381,0.06201 0.39687,0 1.19062,-0.04961 0.79375,-0.06201 1.19062,-0.06201 0.31006,0 0.31006,0.409278 0,0.595312 -0.0744,1.79834 -0.062,1.203027 -0.062,1.798339 0,1.599903 0.23564,4.787305 z"
         style="font-family:'Berlin Sans FB Demi';-inkscape-font-specification:'Berlin Sans FB Demi';fill:#ffffff"
         id="path80146" />
      <path
         d="m 129.91959,15.766084 q 0,0.533301 -0.21084,1.95957 -0.22324,1.550293 -0.39687,1.847949 -0.14883,0.235645 -0.40928,0.235645 -0.11162,0 -0.37207,-0.03721 -0.90537,-0.124023 -5.2834,-0.124023 -0.95498,0 -2.84013,-0.0124 -1.88516,-0.0124 -2.82774,-0.0124 -0.40927,0 -0.40927,-0.359668 0,-1.389063 0.14882,-4.167188 0.16123,-2.790527 0.16123,-4.179589 0,-1.4138675 -0.14882,-5.2709964 -0.0372,-0.9921875 -0.13643,-2.9641601 l -0.0124,-0.1736328 q -0.0248,-0.2852539 0.31006,-0.2852539 0.91777,0 2.75332,0.049609 1.84795,0.049609 2.76572,0.049609 0.90537,0 2.72851,-0.049609 1.82315,-0.049609 2.72852,-0.049609 0.64492,0 0.74414,0.4836914 0.062,0.2852539 0.18604,1.7363281 0.13642,1.4386718 0.13642,1.7487304 0,0.2604492 -0.24805,0.2604492 -0.0744,0 -0.26044,-0.012402 Q 125.7276,6.16667 123.09831,6.16667 q -0.65733,0 -0.80616,0.3100586 -0.062,0.1488282 -0.062,0.9549805 0,0.8433594 0.24805,1.1162109 0.21084,0.2356445 0.80615,0.2356445 0.12402,0 0.48369,-0.012402 0.35967,-0.024805 0.59531,-0.024805 1.5627,0 3.1626,-0.086816 0.13643,-0.012402 0.68213,-0.062012 0.42168,-0.049609 0.66973,-0.049609 0.29765,0 0.29765,0.2852539 0,-0.2604492 -0.22324,1.8975581 -0.0992,0.992188 -0.0992,1.984375 0,0.248047 -0.35967,0.248047 0,0 -1.11621,-0.124023 -0.70693,-0.07441 -3.22461,-0.07441 h -1.31464 q -0.5085,0 -0.59532,0.248047 -0.0124,0.06201 -0.0124,0.768945 0,0.942578 0.12402,1.21543 0.21084,0.471289 1.5875,0.558105 -0.0248,0 1.81075,0 0.65732,0 1.94716,-0.111621 1.30225,-0.124023 1.94717,-0.124023 0.27285,0 0.27285,0.446484 z"
         style="font-family:'Berlin Sans FB Demi';-inkscape-font-specification:'Berlin Sans FB Demi';fill:#ffffff"
         id="path80148" />
      <path
         d="m 152.7027,19.499189 q 0,0.08682 -0.24805,0.124024 -0.47129,0.07441 -2.36884,0.07441 -1.62471,0 -2.20762,-0.07441 -0.27285,-0.03721 -0.31006,-0.06201 -0.0744,-0.03721 -0.17363,-0.248047 -0.18604,-0.483691 -0.54571,-1.438672 -0.48369,-1.240234 -1.51308,-3.658691 -0.22324,-0.483691 -1.0294,-0.533301 0.37207,0.02481 -1.27744,0.02481 -0.18603,0 -0.18603,0.632519 0,0.84336 0.14883,2.517676 0.16123,1.674317 0.16123,2.517676 0,0.21084 -0.11163,0.248047 -0.17363,0.0124 -0.34726,0.02481 -0.73174,0.04961 -2.28203,0.04961 -1.77354,0 -2.1332,-0.07441 -0.35967,-0.07441 -0.35967,-0.384473 0,-1.364258 0.12402,-4.117578 0.13643,-2.75332 0.13643,-4.12998 0,-5.2461916 -0.23565,-8.1855471 l -0.0124,-0.1736328 q -0.0124,-0.2108398 0.38447,-0.2852539 0.40928,-0.074414 3.79512,-0.1488281 2.29443,-0.049609 3.65869,-0.049609 2.82773,0 4.61367,1.2774414 2.02158,1.4386719 2.02158,4.1547851 0,1.8107422 -0.52089,2.8897458 -0.5209,1.079004 -1.92237,2.095996 -0.28525,0.198438 -0.28525,0.372071 0,-0.0124 1.51308,3.112988 1.51309,3.12539 1.51309,3.447851 z M 147.49372,8.3742872 q 0,-1.5130859 -0.99219,-2.0959961 -0.76895,-0.4464843 -2.40606,-0.4464843 -1.17822,0 -1.25263,0.3596679 -0.0744,0.4216797 -0.0744,2.4308594 0,0.2852539 0.0124,0.8433593 0.0124,0.5581056 0.0124,0.8309566 0,0.06201 0.39687,0.124024 0.75655,0.111621 1.5875,0.111621 2.71612,0 2.71612,-2.1580078 z"
         style="font-family:'Berlin Sans FB Demi';-inkscape-font-specification:'Berlin Sans FB Demi';fill:#ffffff"
         id="path80150" />
      <path
         d="m 165.48952,10.457881 q 0,1.463476 0.0744,4.402832 0.0744,2.939355 0.0744,4.402832 0,0.248047 -0.11162,0.310058 -0.0248,0.0124 -0.32246,0.04961 -0.80615,0.09922 -2.15801,0.09922 -1.81074,0 -2.30683,-0.09922 -0.35967,-0.07441 -0.35967,-0.384473 0,0.198438 0.11162,-2.182812 0.22324,-5.022949 0.22324,-6.598047 0,-1.3270508 -0.0868,-3.9811524 -0.0868,-2.6541015 -0.0868,-3.9811522 0,-0.2728516 0.28525,-0.2728516 0.38448,0 1.15342,0.037207 0.78135,0.037207 1.16582,0.037207 0.38448,0 1.12862,-0.037207 0.75654,-0.037207 1.14101,-0.037207 0.35967,0 0.35967,0.2728516 0,1.3270507 -0.14883,3.9811522 -0.13642,2.6541016 -0.13642,3.9811524 z"
         style="font-family:'Berlin Sans FB Demi';-inkscape-font-specification:'Berlin Sans FB Demi';fill:#ffffff"
         id="path80152" />
      <path
         d="m 190.72828,19.313154 q 0,0.223242 -0.31006,0.310059 -0.37207,0.09922 -2.30683,0.09922 -1.77354,0 -2.28203,-0.09922 -0.42168,-0.08682 -0.5333,-0.558106 -0.42168,-1.785937 -0.65733,-1.909961 -0.19843,-0.08682 -3.32383,-0.08682 -2.10839,0 -2.24482,0.111621 -0.21084,0.198438 -0.47129,1.327051 -0.23564,1.029394 -0.57051,1.116211 -0.42168,0.09922 -2.82773,0.09922 -1.89756,0 -1.89756,-0.359668 0,-0.322461 2.80293,-7.925098 3.03857,-8.2227537 3.29902,-9.0413084 0.14883,-0.4712891 0.34727,-0.4712891 0.33486,0 1.02939,0.062012 0.70694,0.062012 1.0542,0.062012 0.33487,0 0.97979,-0.037207 0.65732,-0.049609 0.97978,-0.049609 0.23565,0 0.43409,0.4092773 0.60771,1.3022461 3.54707,8.9296871 2.95175,7.677051 2.95175,8.011914 z M 181.93502,8.0146192 q -0.26045,0.5457032 -0.88056,2.3688478 -0.66973,1.934765 -0.66973,2.269629 0,0.223242 0.74414,0.248047 0.38447,0.0248 1.26504,0.0248 0.81855,0 0.90537,-0.198437 0.0248,-0.06201 0.0248,-0.173633 0,-0.409277 -0.5705,-2.257227 -0.55811,-1.785937 -0.81856,-2.2820308 z"
         style="font-family:'Berlin Sans FB Demi';-inkscape-font-specification:'Berlin Sans FB Demi';fill:#ffffff"
         id="path80154" />
    </g>
    <g
       aria-label="POSTAL CODE"
       id="text62069"
       style="font-size:25.4px;line-height:1.25;font-family:'Cooper Black';-inkscape-font-specification:'Cooper Black, ';stroke-width:0.264583;fill:#ffffff">
      <path
         d="m 68.503189,31.130602 q 0,3.001367 -1.575098,4.861718 -1.686719,1.971973 -4.650879,1.971973 -0.496093,0 -1.500683,-0.04961 -0.992188,-0.06201 -1.488281,-0.06201 -0.533301,0 -0.533301,0.458887 0,0.570507 0.111621,1.699121 0.111621,1.128613 0.111621,1.686718 0,0.285254 -0.260449,0.285254 -0.756543,0 -2.269629,-0.04961 -1.513086,-0.03721 -2.269629,-0.03721 -0.359668,0 -0.359668,-0.359668 0,-1.37666 0.03721,-4.12998 0.04961,-2.765723 0.04961,-4.142383 0,-3.894336 -0.334863,-8.185547 l -0.0124,-0.173633 q -0.02481,-0.235644 0.37207,-0.285254 0.967383,-0.124023 4.266406,-0.124023 1.947168,0 3.733106,0.04961 2.939355,0.08682 4.737695,1.847949 1.835547,1.810743 1.835547,4.737696 z m -4.948535,0.198437 q 0,-2.889746 -2.815332,-2.889746 -1.984375,0 -2.083594,0.223242 -0.08682,0.161231 -0.08682,2.864942 0,0.384472 0.0248,1.141015 0.03721,0.744141 0.03721,1.128614 0,0.248046 2.232422,0.248046 2.691309,0 2.691309,-2.716113 z"
         style="font-family:'Berlin Sans FB Demi';-inkscape-font-specification:'Berlin Sans FB Demi';fill:#ffffff"
         id="path80157" />
      <path
         d="m 87.429165,33.214195 q 0,3.869532 -2.468066,6.486426 -2.517676,2.654102 -6.374805,2.654102 -3.832324,0 -6.362402,-2.678907 -2.480469,-2.616894 -2.480469,-6.461621 0,-3.857128 2.480469,-6.486425 2.530078,-2.691309 6.362402,-2.691309 3.80752,0 6.35,2.691309 2.492871,2.654101 2.492871,6.486425 z m -4.700488,-0.0248 q 0,-1.860352 -1.128613,-3.162598 -1.178223,-1.364258 -3.01377,-1.364258 -1.74873,0 -2.96416,1.413867 -1.178222,1.364258 -1.178222,3.137793 0,1.897559 1.103808,3.162598 1.165821,1.327051 3.038574,1.327051 1.748731,0 2.976563,-1.401465 1.16582,-1.339453 1.16582,-3.112988 z"
         style="font-family:'Berlin Sans FB Demi';-inkscape-font-specification:'Berlin Sans FB Demi';fill:#ffffff"
         id="path80159" />
      <path
         d="m 97.735515,36.190758 q 0,2.517676 -2.120801,4.316015 -1.860352,1.5875 -4.526855,2.021582 -0.09922,0.0124 -0.161231,0.0124 -0.285254,0 -1.265039,-1.736328 -0.979785,-1.748731 -0.979785,-2.133203 0,-0.136426 0.186035,-0.173633 1.79834,-0.409278 2.38125,-0.694531 1.289844,-0.644922 1.289844,-1.909961 0,-0.806153 -0.84336,-1.79834 -1.463476,-1.686719 -1.5875,-1.872754 -0.855761,-1.289844 -0.855761,-2.852539 0,-2.269629 2.095996,-3.770313 1.711523,-1.240234 4.204394,-1.612304 0.136426,-0.0124 0.21084,-0.0124 0.186035,0 0.297656,0.297657 0.322461,0.905371 1.500684,3.274218 0.03721,0.07441 0.03721,0.124024 0,0.21084 -0.223242,0.21084 -0.09922,0 -0.334864,-0.03721 -0.235644,-0.03721 -0.359668,-0.03721 -0.892968,0 -1.562695,0.409277 -0.806152,0.471289 -0.806152,1.314648 0,0.756543 0.892969,1.860352 1.575097,1.984375 1.649511,2.083594 0.880567,1.364257 0.880567,2.716113 z"
         style="font-family:'Berlin Sans FB Demi';-inkscape-font-specification:'Berlin Sans FB Demi';fill:#ffffff"
         id="path80161" />
      <path
         d="m 111.87418,28.290465 q 0,0.248047 -0.27285,0.248047 -0.47129,0 -3.7331,-0.186035 -0.0744,3.137793 -0.0744,4.378027 0,1.463477 0.11162,4.402832 0.12403,2.939355 0.12403,4.402832 0,0.235644 -0.11162,0.297656 -0.0372,0.02481 -0.34727,0.06201 -0.74414,0.09922 -2.18281,0.09922 -1.5999,0 -2.24483,-0.09922 -0.34726,-0.06201 -0.34726,-0.384473 0,-1.463476 0.12402,-4.390429 0.12403,-2.926953 0.12403,-4.39043 0,-0.967383 -0.0992,-4.316016 -2.48047,0.248047 -3.956351,0.248047 -0.198437,0 -0.198437,-0.124023 0,-0.161231 0.173633,-0.954981 0.198437,-0.868164 0.223242,-1.054199 0.03721,-0.58291 0.08682,-1.16582 0.08682,-0.930176 0.297656,-0.930176 0.02481,0 0.173633,0.0124 2.009178,0.26045 5.940718,0.26045 1.11622,0 4.11758,-0.235645 1.61231,-0.124023 1.62471,-0.124023 0.24805,0 0.28525,0.03721 0.0372,0.0248 0.0496,0.235644 0,0.334864 -0.0248,0.930176 -0.0248,0.657324 -0.0248,0.930176 0,0.310058 0.0744,0.917773 0.0868,0.595313 0.0868,0.892969 z"
         style="font-family:'Berlin Sans FB Demi';-inkscape-font-specification:'Berlin Sans FB Demi';fill:#ffffff"
         id="path80163" />
      <path
         d="m 129.55993,41.585777 q 0,0.223242 -0.31006,0.310059 -0.37207,0.09922 -2.30684,0.09922 -1.77353,0 -2.28203,-0.09922 -0.42168,-0.08682 -0.5333,-0.558106 -0.42168,-1.785937 -0.65733,-1.90996 -0.19843,-0.08682 -3.32382,-0.08682 -2.1084,0 -2.24483,0.111621 -0.21084,0.198438 -0.47129,1.327051 -0.23564,1.029394 -0.5705,1.116211 -0.42168,0.09922 -2.82774,0.09922 -1.89756,0 -1.89756,-0.359668 0,-0.322461 2.80293,-7.925098 3.03858,-8.222754 3.29903,-9.041308 0.14882,-0.471289 0.34726,-0.471289 0.33486,0 1.0294,0.06201 0.70693,0.06201 1.0542,0.06201 0.33486,0 0.97978,-0.03721 0.65732,-0.04961 0.97979,-0.04961 0.23564,0 0.43408,0.409277 0.60771,1.302246 3.54707,8.929687 2.95176,7.677051 2.95176,8.011914 z m -8.79327,-11.298535 q -0.26045,0.545703 -0.88056,2.368848 -0.66973,1.934766 -0.66973,2.269629 0,0.223242 0.74414,0.248047 0.38447,0.0248 1.26504,0.0248 0.81856,0 0.90537,-0.198437 0.0248,-0.06201 0.0248,-0.173633 0,-0.409277 -0.57051,-2.257226 -0.55811,-1.785938 -0.81856,-2.282032 z"
         style="font-family:'Berlin Sans FB Demi';-inkscape-font-specification:'Berlin Sans FB Demi';fill:#ffffff"
         id="path80165" />
      <path
         d="m 142.22272,42.106676 q -1.0666,0 -2.77812,-0.04961 -2.23243,-0.04961 -2.77813,-0.06201 l -3.7083,-0.04961 q -0.5581,0.0124 -1.5999,-0.04961 -0.35967,-0.06201 -0.35967,-0.384473 0,-1.351855 0.0372,-4.043164 0.0496,-2.703711 0.0496,-4.055566 0,-1.438672 -0.0868,-4.303613 -0.0868,-2.877344 -0.0868,-4.316016 0,-0.272851 0.37207,-0.272851 0.37207,0 1.10381,0.03721 0.74414,0.03721 1.10381,0.03721 0.40928,0 1.21543,-0.03721 0.80615,-0.04961 1.21543,-0.04961 0.18604,0 0.17363,0.235645 l -0.0124,0.16123 q -0.14883,2.331641 -0.33486,7.007324 l -0.0124,3.274219 q 0,1.5875 0.0124,2.319238 0.0124,0.148828 0.0248,0.297657 0.0124,0.148828 0.18604,0.186035 0.0124,0 0.32246,0 1.11621,0 3.33623,-0.111621 2.23242,-0.124024 3.34863,-0.124024 0.33487,0 0.33487,0.285254 0,2.120801 -0.31006,3.658691 -0.062,0.322461 -0.26045,0.384473 -0.062,0.02481 -0.5085,0.02481 z"
         style="font-family:'Berlin Sans FB Demi';-inkscape-font-specification:'Berlin Sans FB Demi';fill:#ffffff"
         id="path80167" />
      <path
         d="m 165.55153,39.092906 q 0,0.198438 -0.26045,0.520899 -2.28203,2.716113 -6.06475,2.716113 -3.86953,0 -6.27558,-2.641699 -2.34405,-2.554883 -2.34405,-6.449219 0,-3.770312 2.29444,-6.399609 2.39365,-2.75332 6.08955,-2.75332 4.01836,0 6.30039,2.468066 0.24805,0.272851 0.24805,0.483691 0,0.235645 -0.86817,1.748731 -0.85576,1.513086 -1.079,1.699121 -0.0992,0.09922 -0.24805,0.09922 -0.062,0 -0.62012,-0.496094 -0.66972,-0.595313 -1.31464,-0.930176 -0.97979,-0.496094 -2.03399,-0.496094 -1.82314,0 -2.91455,1.364258 -1.00459,1.265039 -1.00459,3.125391 0,1.885156 1.00459,3.162597 1.09141,1.389063 2.91455,1.389063 1.07901,0 2.04639,-0.471289 0.63252,-0.310059 1.28984,-0.868164 0.54571,-0.471289 0.60772,-0.471289 0.12402,0 0.24804,0.136425 0.19844,0.223243 1.07901,1.550293 0.90537,1.37666 0.90537,1.513086 z"
         style="font-family:'Berlin Sans FB Demi';-inkscape-font-specification:'Berlin Sans FB Demi';fill:#ffffff"
         id="path80169" />
      <path
         d="m 184.11783,33.214195 q 0,3.869532 -2.46806,6.486426 -2.51768,2.654102 -6.37481,2.654102 -3.83232,0 -6.3624,-2.678907 -2.48047,-2.616894 -2.48047,-6.461621 0,-3.857128 2.48047,-6.486425 2.53008,-2.691309 6.3624,-2.691309 3.80752,0 6.35,2.691309 2.49287,2.654101 2.49287,6.486425 z m -4.70049,-0.0248 q 0,-1.860352 -1.12861,-3.162598 -1.17822,-1.364258 -3.01377,-1.364258 -1.74873,0 -2.96416,1.413867 -1.17822,1.364258 -1.17822,3.137793 0,1.897559 1.10381,3.162598 1.16582,1.327051 3.03857,1.327051 1.74873,0 2.97656,-1.401465 1.16582,-1.339453 1.16582,-3.112988 z"
         style="font-family:'Berlin Sans FB Demi';-inkscape-font-specification:'Berlin Sans FB Demi';fill:#ffffff"
         id="path80171" />
      <path
         d="m 202.15084,33.102574 q 0,3.646289 -2.34404,6.325196 -2.07119,2.393652 -5.8167,2.517675 -0.71934,0.02481 -3.95635,0.02481 -0.60771,0 -1.83554,-0.03721 -1.21543,-0.03721 -1.82315,-0.03721 -0.35967,0 -0.35967,-0.285254 0,-1.364258 0.0992,-4.092773 0.11162,-2.740918 0.11162,-4.105176 0,-1.42627 -0.11162,-4.266406 -0.0992,-2.852539 -0.0992,-4.266406 0,-0.26045 0.35967,-0.310059 0.88057,-0.09922 2.88975,-0.09922 3.81992,0 4.94853,0.111621 2.93936,0.297657 4.60127,1.488281 1.5627,1.116211 2.46807,3.125391 0.86816,1.897559 0.86816,3.906738 z m -4.7501,0 q 0,-2.095996 -1.25263,-3.423047 -1.26504,-1.37666 -3.34864,-1.37666 -1.90996,0 -1.90996,0.508496 0,0.731739 -0.0248,2.207618 -0.0248,1.463476 -0.0248,2.195214 0,0.719336 0.0248,2.170411 0.0248,1.438671 0.0248,2.17041 0,0.5333 1.98438,0.5333 2.1456,0 3.37344,-1.426269 1.15341,-1.351856 1.15341,-3.559473 z"
         style="font-family:'Berlin Sans FB Demi';-inkscape-font-specification:'Berlin Sans FB Demi';fill:#ffffff"
         id="path80173" />
      <path
         d="m 216.77321,38.038707 q 0,0.533301 -0.21084,1.95957 -0.22325,1.550293 -0.39688,1.84795 -0.14883,0.235644 -0.40928,0.235644 -0.11162,0 -0.37207,-0.03721 -0.90537,-0.124023 -5.2834,-0.124023 -0.95498,0 -2.84013,-0.0124 -1.88516,-0.0124 -2.82774,-0.0124 -0.40927,0 -0.40927,-0.359668 0,-1.389063 0.14882,-4.167188 0.16123,-2.790527 0.16123,-4.179589 0,-1.413867 -0.14882,-5.270996 -0.0372,-0.992188 -0.13643,-2.96416 l -0.0124,-0.173633 q -0.0248,-0.285254 0.31006,-0.285254 0.91777,0 2.75332,0.04961 1.84795,0.04961 2.76572,0.04961 0.90537,0 2.72852,-0.04961 1.82314,-0.04961 2.72851,-0.04961 0.64492,0 0.74414,0.483691 0.062,0.285254 0.18604,1.736328 0.13642,1.438672 0.13642,1.748731 0,0.260449 -0.24804,0.260449 -0.0744,0 -0.26045,-0.0124 -3.29903,-0.272852 -5.92832,-0.272852 -0.65733,0 -0.80616,0.310059 -0.062,0.148828 -0.062,0.95498 0,0.84336 0.24805,1.116211 0.21084,0.235645 0.80615,0.235645 0.12402,0 0.48369,-0.0124 0.35967,-0.0248 0.59532,-0.0248 1.56269,0 3.16259,-0.08682 0.13643,-0.0124 0.68213,-0.06201 0.42168,-0.04961 0.66973,-0.04961 0.29765,0 0.29765,0.285254 0,-0.260449 -0.22324,1.897559 -0.0992,0.992187 -0.0992,1.984375 0,0.248046 -0.35966,0.248046 0,0 -1.11622,-0.124023 -0.70693,-0.07441 -3.2246,-0.07441 h -1.31465 q -0.5085,0 -0.59532,0.248047 -0.0124,0.06201 -0.0124,0.768945 0,0.942578 0.12403,1.21543 0.21084,0.471289 1.5875,0.558105 -0.0248,0 1.81074,0 0.65732,0 1.94717,-0.111621 1.30224,-0.124023 1.94716,-0.124023 0.27286,0 0.27286,0.446484 z"
         style="font-family:'Berlin Sans FB Demi';-inkscape-font-specification:'Berlin Sans FB Demi';fill:#ffffff"
         id="path80175" />
    </g>
    <path
       id="path76388"
       style="fill:#ffa500;fill-rule:evenodd;stroke:#ffffff"
       transform="matrix(0.26458333,0,0,0.26458333,1.5875,6.3500003)"
       d="m 82.184479,64.143982 c 1.708539,3.115576 -3.356801,3.840192 -5.178292,2.839705 -4.936128,-2.711259 -3.812812,-9.719087 -0.501118,-13.196289 5.923844,-6.219899 16.009436,-4.209332 21.214286,1.83747 7.638325,8.873924 4.644285,22.394759 -4.176058,29.232282 C 81.787173,93.970491 64.728237,89.954357 56.293019,78.342505 45.678158,63.730175 50.733263,43.090165 65.146251,33.07423 82.60231,20.943592 106.8455,27.046294 118.43252,44.266049 132.08743,64.558936 124.93219,92.418211 104.90212,105.57032 81.776608,120.75495 50.293027,112.54407 35.579851,89.701324 18.861806,63.745941 28.130353,28.632493 53.787432,12.361063 82.570798,-5.8930233 121.31806,4.4346239 139.14569,32.907231 c 19.79205,31.60999 8.40427,73.993959 -22.88476,93.376249" />
  </g>
</svg>
