<?xml version="1.0" encoding="UTF-8" standalone="no"?>
<!-- Created with Inkscape (http://www.inkscape.org/) -->

<svg
   width="200"
   height="44"
   viewBox="0 0 58.208333 12.805833"
   version="1.1"
   id="svg5"
   inkscape:version="1.1.1 (3bf5ae0d25, 2021-09-20)"
   sodipodi:docname="logoz.svg"
   xmlns:inkscape="http://www.inkscape.org/namespaces/inkscape"
   xmlns:sodipodi="http://sodipodi.sourceforge.net/DTD/sodipodi-0.dtd"
   xmlns="http://www.w3.org/2000/svg"
   xmlns:svg="http://www.w3.org/2000/svg">
  <sodipodi:namedview
     id="namedview7"
     pagecolor="#ffffff"
     bordercolor="#666666"
     borderopacity="0"
     inkscape:pageshadow="2"
     inkscape:pageopacity="1"
     inkscape:pagecheckerboard="false"
     inkscape:document-units="mm"
     showgrid="false"
     units="px"
     scale-x="1.1"
     inkscape:zoom="2.3987665"
     inkscape:cx="116.10134"
     inkscape:cy="-6.8785353"
     inkscape:window-width="1366"
     inkscape:window-height="745"
     inkscape:window-x="-8"
     inkscape:window-y="-8"
     inkscape:window-maximized="1"
     inkscape:current-layer="layer1"
     inkscape:snap-text-baseline="true"
     showguides="false" />
  <defs
     id="defs2" />
  <g
     inkscape:label="Layer 1"
     inkscape:groupmode="layer"
     id="layer1">
    <path
       id="path847"
       style="fill:#ffffff;fill-opacity:1;fill-rule:evenodd;stroke:#ffffff;stroke-width:0.291042;stroke-opacity:1"
       d="M 5.6576017,6.1557038 C 5.7846676,6.4837287 5.2982025,6.4969716 5.1371639,6.3769439 4.7007593,6.0516769 4.8840787,5.3711741 5.2352177,5.0653062 5.863323,4.51818 6.7938756,4.8335429 7.2189148,5.491984 7.842677,6.4582727 7.4108879,7.7616863 6.5023695,8.3364996 5.2914575,9.1026355 3.724286,8.508325 3.0554131,7.2619042 2.2137048,5.6934103 2.9186211,3.7092986 4.3904498,2.8845105 6.1730317,1.8855815 8.3958521,2.769289 9.3006657,4.607024 10.366957,6.7727311 9.3841191,9.4469943 7.3471374,10.517296 4.9953614,11.753 2.1118264,10.577109 0.97366227,8.1468642 -0.31959209,5.3854642 0.9427951,2.0177468 3.5456819,0.70371469 6.4657276,-0.77043072 10.012082,0.69876281 11.382417,3.722064 c 1.521331,3.3564374 -0.02135,7.419158 -3.1905117,8.976026" />
    <g
       aria-label="NIGERIA"
       id="text1817"
       style="font-size:10.8656px;line-height:1.25;font-family:Arial;-inkscape-font-specification:Arial;fill:#ffffff;stroke-width:0.291042;fill-opacity:1"
       transform="translate(0,-0.58208332)">
      <path
         d="M 13.179101,8.4935141 V 0.71569714 h 1.527975 L 17.890357,5.9097509 V 0.71569714 h 1.459004 V 8.4935141 h -1.575724 l -3.135532,-5.072028 v 5.072028 z"
         style="font-weight:bold;-inkscape-font-specification:'Arial Bold';fill:#ffffff;fill-opacity:1"
         id="path16395" />
      <path
         d="M 20.962224,8.4935141 V 0.71569714 h 1.570418 V 8.4935141 Z"
         style="font-weight:bold;-inkscape-font-specification:'Arial Bold';fill:#ffffff;fill-opacity:1"
         id="path16397" />
      <path
         d="M 27.647114,5.6338665 V 4.3234158 h 3.384889 v 3.0983936 q -0.493408,0.4774922 -1.432476,0.8435695 -0.933763,0.3607719 -1.894053,0.3607719 -1.220257,0 -2.127493,-0.509325 -0.907235,-0.5146305 -1.363505,-1.4643093 -0.45627,-0.9549844 -0.45627,-2.0744382 0,-1.2149523 0.509325,-2.1593258 0.509325,-0.9443734 1.490836,-1.44839287 0.748071,-0.38729921 1.86222,-0.38729921 1.448393,0 2.260129,0.61012888 0.817043,0.6048234 1.050483,1.6765281 L 29.371391,3.1615181 Q 29.206922,2.5885275 28.750652,2.2595885 28.299687,1.925344 27.620587,1.925344 q -1.029261,0 -1.63939,0.6525726 -0.604823,0.6525726 -0.604823,1.936496 0,1.3847273 0.615434,2.0797437 0.615434,0.6897109 1.612862,0.6897109 0.493409,0 0.986818,-0.1909968 0.498714,-0.1963024 0.85418,-0.4721867 V 5.6338665 Z"
         style="font-weight:bold;-inkscape-font-specification:'Arial Bold';fill:#ffffff;fill-opacity:1"
         id="path16399" />
      <path
         d="M 32.480396,8.4935141 V 0.71569714 H 38.24744 V 2.0314533 h -4.196625 v 1.7242773 h 3.904825 v 1.3104508 h -3.904825 v 2.1168819 h 4.345179 v 1.3104508 z"
         style="font-weight:bold;-inkscape-font-specification:'Arial Bold';fill:#ffffff;fill-opacity:1"
         id="path16401" />
      <path
         d="M 39.732972,8.4935141 V 0.71569714 h 3.305307 q 1.246785,0 1.809165,0.21221874 0.567685,0.20691332 0.907235,0.74276562 0.33955,0.5358523 0.33955,1.2255632 0,0.8754023 -0.51463,1.4483929 -0.514631,0.5676852 -1.538586,0.7162383 0.509325,0.2971062 0.838264,0.6525726 0.334244,0.3554664 0.896624,1.2627015 L 46.72558,8.4935141 H 44.847444 L 43.712074,6.8010696 Q 43.10725,5.8938345 42.884421,5.6603938 42.661591,5.4216478 42.412234,5.3367603 42.162877,5.2465673 41.621719,5.2465673 h -0.318328 v 3.2469468 z m 1.570419,-4.4884264 h 1.161898 q 1.130064,0 1.411254,-0.095498 0.28119,-0.095498 0.440354,-0.328939 0.159164,-0.2334407 0.159164,-0.5836016 0,-0.3926047 -0.212219,-0.6313507 -0.206913,-0.2440516 -0.588907,-0.3077172 -0.190997,-0.026527 -1.145981,-0.026527 h -1.225563 z"
         style="font-weight:bold;-inkscape-font-specification:'Arial Bold';fill:#ffffff;fill-opacity:1"
         id="path16403" />
      <path
         d="M 47.526706,8.4935141 V 0.71569714 h 1.570419 V 8.4935141 Z"
         style="font-weight:bold;-inkscape-font-specification:'Arial Bold';fill:#ffffff;fill-opacity:1"
         id="path16405" />
      <path
         d="m 57.607095,8.4935141 h -1.708361 l -0.6791,-1.7667211 h -3.109005 l -0.641961,1.7667211 h -1.665917 l 3.029422,-7.77781696 h 1.660612 z M 54.715614,5.4163423 53.64391,2.5301674 52.593427,5.4163423 Z"
         style="font-weight:bold;-inkscape-font-specification:'Arial Bold';fill:#ffffff;fill-opacity:1"
         id="path16407" />
    </g>
    <g
       aria-label="Z I P          C O D E"
       id="text3277"
       style="font-size:5.43278px;line-height:1.25;font-family:'Tekton Pro';-inkscape-font-specification:'Tekton Pro';stroke-width:0.291042">
      <path
         d="M 13.060601,11.832388 15.058102,9.4422836 H 13.34179 q -0.180386,0 -0.273231,-0.079582 -0.09019,-0.079582 -0.09019,-0.2095652 0,-0.135289 0.09019,-0.2175234 0.09284,-0.084887 0.273231,-0.084887 h 2.212372 q 0.429741,0 0.429741,0.4005614 0,0.1909961 -0.07162,0.3050633 -0.07162,0.1140672 -0.289147,0.3687287 l -1.867518,2.2229835 h 2.058514 q 0.183038,0 0.27323,0.07693 0.09019,0.07428 0.09019,0.209565 0,0.140594 -0.09019,0.222829 -0.09019,0.08223 -0.27323,0.08223 h -2.525394 q -0.257314,0 -0.387298,-0.114067 -0.129983,-0.11672 -0.129983,-0.310369 0,-0.06632 0.02122,-0.122025 0.02122,-0.05571 0.05571,-0.103456 0.03714,-0.0504 0.100803,-0.124678 0.06367,-0.07693 0.111415,-0.132637 z"
         style="font-family:'Arial Rounded MT Bold';-inkscape-font-specification:'Arial Rounded MT Bold, '"
         id="path23987" />
      <path
         d="M 18.063639,12.325795 V 9.2618984 q 0,-0.2387452 0.108762,-0.3581178 0.108762,-0.1193726 0.281189,-0.1193726 0.177733,0 0.286494,0.1193726 0.111415,0.1167199 0.111415,0.3581178 v 3.0638966 q 0,0.241398 -0.111415,0.360771 -0.108761,0.119372 -0.286494,0.119372 -0.169774,0 -0.281189,-0.119372 -0.108762,-0.122026 -0.108762,-0.360771 z"
         style="font-family:'Arial Rounded MT Bold';-inkscape-font-specification:'Arial Rounded MT Bold, '"
         id="path23989" />
      <path
         d="m 22.599798,11.224915 h -0.721541 v 1.10088 q 0,0.236093 -0.111414,0.358118 -0.111415,0.122025 -0.281189,0.122025 -0.177732,0 -0.286494,-0.119372 -0.108762,-0.122026 -0.108762,-0.355465 V 9.3335219 q 0,-0.259967 0.119373,-0.3713814 0.119372,-0.1114144 0.379339,-0.1114144 h 1.010688 q 0.448311,0 0.689709,0.068971 0.238745,0.066318 0.411172,0.2201762 0.17508,0.153858 0.265273,0.3766868 0.09019,0.2228289 0.09019,0.5013651 0,0.59421 -0.366076,0.901926 -0.366076,0.305064 -1.09027,0.305064 z M 22.408802,9.4422836 h -0.530545 v 1.1884204 h 0.530545 q 0.278536,0 0.464227,-0.05836 0.188343,-0.05836 0.286494,-0.190996 0.09815,-0.132636 0.09815,-0.347507 0,-0.2573141 -0.151205,-0.4191303 -0.169775,-0.1724271 -0.697667,-0.1724271 z"
         style="font-family:'Arial Rounded MT Bold';-inkscape-font-specification:'Arial Rounded MT Bold, '"
         id="path23991" />
      <path
         d="m 41.609222,11.511409 q 0,0.18569 -0.09285,0.403214 -0.09019,0.214871 -0.286494,0.424436 -0.196302,0.206912 -0.501365,0.336896 -0.305064,0.129983 -0.71093,0.129983 -0.307717,0 -0.559725,-0.05836 -0.252009,-0.05836 -0.458922,-0.180385 -0.204259,-0.124678 -0.376687,-0.326285 -0.153858,-0.183038 -0.262619,-0.40852 -0.108762,-0.228134 -0.164469,-0.485448 -0.05306,-0.257314 -0.05306,-0.546461 0,-0.469533 0.135289,-0.8409141 0.137942,-0.3713814 0.392603,-0.6340011 0.254662,-0.2652725 0.596863,-0.4032142 0.342202,-0.1379416 0.7295,-0.1379416 0.472185,0 0.840913,0.1883434 0.368729,0.1883434 0.565031,0.4668795 0.196301,0.2758834 0.196301,0.5225868 0,0.1352893 -0.0955,0.2387453 -0.0955,0.103456 -0.230787,0.103456 -0.151205,0 -0.228134,-0.07162 Q 40.969916,10.161172 40.87707,9.9860922 40.723212,9.6969452 40.513647,9.5536981 40.306734,9.410451 40.001671,9.410451 q -0.485448,0 -0.774595,0.3687287 -0.286495,0.3687283 -0.286495,1.0478263 0,0.453616 0.127331,0.756026 0.127331,0.299758 0.360771,0.448311 0.233439,0.148552 0.546461,0.148552 0.339549,0 0.572988,-0.167121 0.236093,-0.169775 0.355466,-0.49606 0.0504,-0.153858 0.124678,-0.249356 0.07428,-0.09815 0.238745,-0.09815 0.140594,0 0.241398,0.09815 0.100803,0.09815 0.100803,0.244051 z"
         style="font-family:'Arial Rounded MT Bold';-inkscape-font-specification:'Arial Rounded MT Bold, '"
         id="path23993" />
      <path
         d="m 45.386701,8.784408 q 0.604821,0 1.037215,0.2467033 0.435047,0.2440507 0.657876,0.6976666 0.222829,0.4509631 0.222829,1.0610901 0,0.450963 -0.122025,0.819692 -0.122026,0.368728 -0.366076,0.639306 -0.244051,0.270578 -0.599516,0.413825 -0.355465,0.143247 -0.814387,0.143247 -0.456268,0 -0.817039,-0.1459 -0.36077,-0.148552 -0.602168,-0.416477 -0.241398,-0.267925 -0.366076,-0.644612 -0.122025,-0.376687 -0.122025,-0.814387 0,-0.44831 0.12733,-0.8223443 Q 43.752623,9.5881835 43.996673,9.3255638 44.240724,9.062944 44.590884,8.9250024 44.941043,8.784408 45.386701,8.784408 Z m 1.11945,2.000154 q 0,-0.427088 -0.137942,-0.74011 Q 46.230268,9.7314306 45.972953,9.5722671 45.718292,9.410451 45.386701,9.410451 q -0.236092,0 -0.437699,0.090193 -0.198955,0.08754 -0.344855,0.2573143 -0.143247,0.1697743 -0.228134,0.4350471 -0.08223,0.262619 -0.08223,0.591557 0,0.331591 0.08223,0.599516 0.08489,0.267925 0.236093,0.445658 0.153858,0.17508 0.350159,0.262619 0.198955,0.08754 0.435047,0.08754 0.302411,0 0.554419,-0.151205 0.254662,-0.151205 0.403215,-0.466879 0.151205,-0.315675 0.151205,-0.777249 z"
         style="font-family:'Arial Rounded MT Bold';-inkscape-font-specification:'Arial Rounded MT Bold, '"
         id="path23995" />
      <path
         d="m 49.824709,8.8507261 h 1.026604 q 0.400561,0 0.687056,0.074276 0.286494,0.074276 0.519934,0.278536 0.607474,0.519934 0.607474,1.5810236 0,0.35016 -0.06101,0.639307 -0.06101,0.289147 -0.188344,0.522587 -0.12733,0.230787 -0.326285,0.413825 -0.15651,0.140594 -0.342201,0.225481 -0.185691,0.08489 -0.400562,0.119373 -0.212217,0.03449 -0.480143,0.03449 h -1.026604 q -0.214871,0 -0.323632,-0.06367 -0.108762,-0.06632 -0.143248,-0.183038 -0.03183,-0.119373 -0.03183,-0.307716 V 9.3335219 q 0,-0.2546615 0.114067,-0.3687287 0.114067,-0.1140671 0.368729,-0.1140671 z m 0.305063,0.6233902 v 2.6394607 h 0.596863 q 0.196302,0 0.307716,-0.01061 0.111414,-0.01061 0.230787,-0.05305 0.119373,-0.04244 0.206913,-0.119373 0.395255,-0.334243 0.395255,-1.151282 0,-0.575641 -0.175079,-0.8621357 Q 51.5198,9.6306271 51.265138,9.5536981 51.010476,9.4741163 50.649706,9.4741163 Z"
         style="font-family:'Arial Rounded MT Bold';-inkscape-font-specification:'Arial Rounded MT Bold, '"
         id="path23997" />
      <path
         d="m 57.278866,9.4582 h -1.774673 v 0.954981 h 1.634078 q 0.180385,0 0.267925,0.08223 0.09019,0.07958 0.09019,0.212218 0,0.132636 -0.08754,0.217524 -0.08754,0.08223 -0.270578,0.08223 h -1.634078 v 1.106186 h 1.835685 q 0.185691,0 0.278536,0.08754 0.0955,0.08489 0.0955,0.228134 0,0.137942 -0.0955,0.225482 -0.09285,0.08489 -0.278536,0.08489 H 55.19913 q -0.257315,0 -0.371382,-0.114067 -0.111414,-0.114067 -0.111414,-0.368729 V 9.3335219 q 0,-0.1697743 0.0504,-0.2758833 0.0504,-0.1087617 0.156511,-0.1565108 0.108762,-0.050402 0.275884,-0.050402 h 2.079736 q 0.188343,0 0.278536,0.084887 0.09284,0.082234 0.09284,0.2175234 0,0.1379417 -0.09284,0.2228288 Q 57.467209,9.4582 57.278866,9.4582 Z"
         style="font-family:'Arial Rounded MT Bold';-inkscape-font-specification:'Arial Rounded MT Bold, '"
         id="path23999" />
    </g>
    <path
       id="path23771"
       style="fill:#ff6600;stroke:#ffffff"
       inkscape:transform-center-y="-0.24330517"
       transform="matrix(0.29104166,0,0,0.29104166,1.1641666,-2.1399253)"
       d="m 101.71895,35.017997 2.57288,5.213229 5.75314,0.835981 -4.16301,4.057933 0.98275,5.729893 -5.14576,-2.705288 -5.145767,2.705288 0.982754,-5.729893 -4.163011,-4.057934 5.75314,-0.83598 z" />
  </g>
</svg>
